<svg width="288" height="133" viewBox="0 0 288 133" fill="none" xmlns="http://www.w3.org/2000/svg">
<path d="M92.3225 94.9287C87.7421 91.2978 82.3933 89.4507 76.7233 88.4876C64.848 86.4784 53.3931 87.9963 42.1939 92.2396C34.2607 95.2486 25.9627 96.9228 17.3587 96.6454C10.6088 96.4258 5.29214 93.0084 0.16787 89.2466C-0.0234637 89.1052 -0.0729284 88.7912 0.140272 88.0486C1.7272 88.8176 3.35173 89.5584 4.89453 90.4001C9.53987 92.9376 14.4257 93.886 19.6868 92.6611C29.0427 90.4855 37.5647 86.4259 45.7269 81.6444C51.2723 78.3944 57.0131 75.2159 63.3981 73.9452C73.0156 72.0294 82.6167 72.4466 92.044 75.3032C100.119 77.7531 107.528 81.6067 114.551 86.1327C120.069 89.6907 126.001 92.616 132.468 94.27C132.806 94.3539 133.155 94.307 134.185 94.4896C133.302 93.7254 132.936 93.3595 132.522 93.0564C125.161 87.6977 121.656 80.4716 121.121 71.7281C120.347 58.982 124.72 47.6279 131.028 36.7176C136.802 26.7343 141.066 16.2004 142.821 4.83655C143.007 3.64828 143.122 2.45015 143.312 1.26215C143.334 1.12615 143.639 1.03243 144.087 0.743635C144.321 1.32003 144.648 1.78042 144.681 2.25629C145.265 11.612 148.59 20.2407 152.516 28.6592C155.581 35.2262 159.304 41.5055 162.275 48.1083C165.765 55.8688 167.281 64.0678 166.551 72.5706C165.835 80.8742 162.373 87.7866 155.378 92.9203C154.921 93.2548 154.479 93.692 154.168 94.488C154.806 94.3361 155.438 94.1774 156.077 94.0156C164.053 91.9959 170.775 87.4687 177.662 83.3562C191.369 75.1675 206.166 71.0187 222.355 73.4988C228.952 74.5087 234.938 77.4643 240.625 80.7816C249.24 85.8049 258.127 90.3752 268.012 92.6667C273.279 93.886 278.159 92.9434 282.81 90.4164C284.358 89.5739 285.989 88.8279 287.581 88.0531C287.722 88.2628 287.858 88.4721 288.001 88.6872C287.581 89.1052 287.193 89.5611 286.73 89.9266C278.977 96.0279 270.144 98.189 260.411 95.9496C253.574 94.3747 246.879 92.2294 240.112 90.3612C226.416 86.5884 212.862 86.1696 199.608 92.0355C198.075 92.7155 196.652 93.6104 195.322 94.7983C195.665 94.7303 196.031 94.7039 196.358 94.5834C208.549 90.0471 221.03 88.8433 233.766 91.9829C241.312 93.8467 248.759 96.0747 256.267 98.0631C262.865 99.8108 269.523 100.601 276.283 98.8644C277.914 98.4452 278.562 99.2098 277.843 100.517C277.068 101.93 276.087 103.395 274.811 104.369C261.758 114.358 247.414 122.248 231.961 128.271C220.201 132.854 207.993 133.237 195.802 130.641C188.517 129.092 181.505 126.372 174.341 124.289C169.45 122.865 164.479 121.694 159.587 120.281C158.677 120.019 157.45 119.228 157.297 118.502C157.134 117.717 157.816 116.44 158.546 115.859C167.297 108.905 176.25 102.171 184.902 95.1071C194.139 87.567 204.771 84.0252 216.761 83.4386C225.981 82.9884 234.541 85.4898 243.145 88.0175C248.465 89.5811 253.798 91.1251 259.13 92.664C259.539 92.7843 259.997 92.8164 260.558 92.5287C259.599 92.1576 258.612 91.8325 257.691 91.3987C252.108 88.756 246.399 86.1962 240.996 83.2447C233.193 78.9904 225.081 76.4427 215.975 76.6199C203.648 76.8607 192.127 79.5676 181.62 85.8828C179.167 87.3587 176.675 88.7964 174.271 90.34C167.107 94.94 159.249 98.2404 150.777 99.2971C137.201 100.987 124.742 97.4788 113.297 90.2943C108.898 87.5315 104.361 84.8052 99.6612 82.5447C90.7899 78.2795 81.2319 76.9076 71.3583 76.6044C60.6067 76.2746 51.6159 80.4883 42.7068 85.4852C38.3716 87.9182 33.6121 89.6812 29.0427 91.7166C28.4489 91.983 27.8215 92.1826 27.2057 92.4176C27.2599 92.6115 27.3143 92.8099 27.3637 93.0039C30.1331 92.3027 32.9245 91.6644 35.6675 90.8952C43.4317 88.713 51.0535 85.7986 58.9648 84.4016C74.9185 81.5863 89.7324 84.5011 102.414 94.8452C108.816 100.068 115.151 105.363 121.601 110.527C123.935 112.395 126.618 113.861 128.946 115.733C129.764 116.387 130.407 117.717 130.363 118.706C130.336 119.292 128.885 120.051 127.948 120.333C122.37 122.023 116.645 123.31 111.182 125.277C100.806 129.009 90.2781 131.751 79.1335 132.164C66.9963 132.613 56.0319 128.957 45.3777 123.886C33.95 118.444 23.0505 112.207 13.1005 104.525C11.7203 103.463 10.7127 101.851 9.82293 100.34C9.1964 99.2721 9.80747 98.472 11.1867 98.8175C21.7965 101.48 31.5455 98.1265 41.4248 95.1015C51.2833 92.0831 61.3096 89.6394 71.8379 90.3868C78.3212 90.8484 84.6456 92.0253 90.7192 94.3225C91.2593 94.5152 91.7933 94.7194 92.3225 94.9287ZM137.26 74.0095C137.478 74.0001 137.701 73.9887 137.92 73.9784C139.381 70.7284 140.815 67.4694 142.325 64.2406C142.691 63.4611 143.306 62.7914 143.803 62.0691C144.354 62.8228 145.04 63.5136 145.428 64.335C146.954 67.5472 148.383 70.7964 150.089 74.5647C152.314 70.7451 155.705 69.4154 158.998 67.935C159.794 67.5786 160.656 67.1338 161.174 66.5007C161.703 65.8578 162.199 64.8736 162.101 64.1147C160.918 55.4131 158.219 47.1876 153.923 39.3912C151.355 34.7401 149.184 29.874 147.08 25.0022C145.826 22.0976 145.057 19.0003 143.977 15.7034C143.656 16.2062 143.503 16.3634 143.449 16.5414C141.191 23.9447 138.53 31.1814 134.605 37.9679C130.243 45.5035 127.173 53.4927 125.919 62.0851C125.336 66.0827 125.391 66.3913 129.218 68.1436C132.31 69.5669 135.504 70.8388 137.26 74.0095ZM95.2664 101.867C96.3515 117.659 89.1323 126.319 73.5825 128.893C78.6539 128.925 83.7293 129.066 88.5819 128.13C99.5089 126.031 110.124 122.797 120.347 118.481C120.957 118.224 121.748 117.654 121.825 117.141C121.895 116.659 121.258 115.885 120.723 115.54C116.519 112.866 112.376 110.067 107.992 107.696C104.029 105.562 99.7753 103.908 95.2664 101.867ZM192.715 101.925C188.774 103.568 185.23 104.704 182.046 106.441C176.888 109.261 171.953 112.463 166.964 115.566C166.436 115.896 165.748 116.817 165.895 117.157C166.163 117.759 166.937 118.324 167.624 118.559C175.323 121.16 183.022 123.776 190.775 126.23C197.759 128.438 204.972 129.312 212.327 128.982C212.916 128.957 213.505 128.831 214.094 128.753C207.35 127.815 201.489 125.487 197.187 120.364C192.841 115.184 191.576 109.162 192.715 101.925ZM236.133 102.123C237.605 112.186 234.191 119.485 226.324 125.069C233.531 124.242 253.961 112.652 257.146 107.477C250.183 105.703 243.303 103.95 236.133 102.123ZM61.4676 125.12C53.4747 119.469 50.0885 112.097 51.5936 102.119C44.4128 103.956 37.5051 105.719 30.4225 107.529C34.9689 113.337 53.8451 123.97 61.4676 125.12ZM144.289 66.8563C144.048 66.8669 143.814 66.8775 143.574 66.8884C141.818 71.1476 140.041 75.4018 138.34 79.676C138.002 80.5242 137.794 81.4918 137.827 82.392C137.915 84.6938 138.1 87.0122 140.826 88.0799C143.356 89.0686 145.869 89.0062 148.023 87.4314C150.067 85.929 150.422 83.4855 149.74 81.3825C148.143 76.4793 146.131 71.6915 144.289 66.8563ZM136.748 88.6184C134.975 85.0506 134.736 81.8218 135.346 78.421C135.532 77.3846 134.878 76.0605 134.256 75.0719C132.31 71.99 128.891 71.1732 125.614 69.9804C125.079 76.8875 130.052 85.3794 136.748 88.6184ZM150.962 88.6026C158.737 85.0816 163.143 74.4965 161.943 69.9748C160.16 70.6872 158.257 71.1786 156.659 72.1416C154.309 73.565 152.003 75.4854 152.379 78.4054C152.821 81.816 152.772 85.0347 150.962 88.6026ZM70.7913 101.967C67.8584 101.925 65.7585 103.562 65.0173 106.132C63.976 109.732 65.8405 113.913 69.3359 115.828C71.9792 117.277 74.6083 117.23 76.2977 115.576C69.5316 113.002 68.7791 108.036 70.7913 101.967ZM216.908 101.957C219.05 108.115 218.079 113.055 211.248 115.708C213.832 117.382 216.678 117.136 219.307 115.247C222.381 113.034 223.739 109.094 222.578 105.739C221.777 103.427 219.727 101.941 216.908 101.957ZM207.775 120.197C207.049 121.338 206.379 122.389 205.441 123.87C208.031 124.545 210.299 125.132 212.639 125.743C213.195 121.589 213.195 121.589 207.775 120.197ZM75.2016 125.838C77.6009 125.116 79.8153 124.446 82.2576 123.714C81.2376 122.207 80.5724 121.217 79.9291 120.271C74.3573 121.442 74.3573 121.442 75.2016 125.838ZM221.951 124.294C219.421 120.699 218.756 120.239 216.33 121.573C215.391 122.091 215.239 123.923 214.726 125.157C214.961 125.367 215.195 125.576 215.425 125.786C217.497 125.309 219.568 124.833 221.951 124.294ZM72.2521 125.801C72.5307 125.524 72.808 125.246 73.0867 124.974C72.4973 123.792 72.2143 121.976 71.26 121.547C68.3645 120.244 68.2617 120.454 65.9055 124.299C68.1135 124.817 70.1801 125.309 72.2521 125.801ZM64.1177 123.53C65.9331 120.234 65.8836 119.821 63.8227 118.586C61.6147 117.261 61.3636 117.329 59.3031 120.009C60.8897 121.17 62.4767 122.332 64.1177 123.53ZM228.581 119.899C225.817 117.209 225.838 117.236 223.325 118.91C221.111 120.386 223.052 121.736 223.281 123.766C225.25 122.332 226.836 121.17 228.581 119.899ZM87.5131 119.209C84.8689 116.382 84.2037 116.393 81.8917 119.334C84.2476 122.845 85.3217 122.819 87.5131 119.209ZM199.831 119.454C201.101 120.39 202.175 121.761 203.381 121.877C204.193 121.95 205.185 120.254 206.085 119.365C203.026 116.446 203.026 116.446 199.831 119.454ZM60.6059 116.058C59.9195 115.08 59.5484 114.096 58.8177 113.64C58.1303 113.211 57.0728 113.332 56.1732 113.211C56.0916 113.918 55.7533 114.724 55.9933 115.315C56.3697 116.242 57.1389 117.026 57.8033 117.953C58.8068 117.277 59.576 116.754 60.6059 116.058ZM229.976 117.989C230.707 116.895 231.307 116.027 231.879 115.143C232.621 114.002 232.245 113.259 230.92 112.981C228.2 112.411 228.434 114.897 227.087 116.032C228.15 116.754 228.919 117.277 229.976 117.989ZM196.352 113.787C197.121 115.132 197.835 116.372 198.599 117.706C201.788 114.677 201.788 114.677 199.166 112.186C198.326 112.667 197.459 113.159 196.352 113.787ZM89.1167 117.817C89.9456 116.31 90.632 115.054 91.3568 113.724C90.1743 113.096 89.2959 112.631 88.4515 112.181C86.1452 114.677 86.1452 114.677 89.1167 117.817ZM199.214 110.941C198.511 109.329 198.01 108.011 197.306 106.797C197.23 106.666 195.447 107.085 195.42 107.346C195.278 108.675 195.447 110.04 195.518 111.532C196.876 111.318 197.726 111.182 199.214 110.941ZM92.2572 111.532C92.2572 109.879 92.3489 108.508 92.1588 107.178C92.126 106.97 90.2781 106.677 90.2019 106.838C89.5907 108.1 89.204 109.465 88.6968 110.962C90.0105 111.171 90.8613 111.308 92.2572 111.532ZM233.221 111.218C233.362 109.743 234.639 108.22 232.948 107.006C232.158 106.436 231.197 106.77 230.871 108.052C230.429 109.795 230.277 111.182 233.221 111.218ZM56.0209 106.619C55.6396 106.629 55.2571 106.64 54.8757 106.65C54.5976 107.341 54.014 108.073 54.1179 108.706C54.2593 109.586 54.9192 110.386 55.3553 111.218C55.9555 110.653 57.0407 110.099 57.0516 109.528C57.0617 108.565 56.3973 107.592 56.0209 106.619ZM233.193 104.787C233.641 103.956 234.028 103.234 234.568 102.224C233.314 101.904 232.13 101.601 230.805 101.265C230.686 103.281 230.664 104.813 233.193 104.787ZM56.97 101.187C55.53 101.591 54.3741 101.91 53.1364 102.255C53.7419 103.322 54.1776 104.092 54.5764 104.798C57.0784 104.772 56.9964 103.234 56.97 101.187ZM198.811 102.517C198.457 102.218 198.103 101.92 197.748 101.622C196.969 102.391 196.194 103.16 195.414 103.929C195.91 104.18 196.685 104.756 196.854 104.62C197.601 104.029 198.173 103.238 198.811 102.517ZM92.3059 104.479C92.3656 102.364 90.8992 102.25 89.4493 101.972C89.3235 104.541 89.574 104.772 92.3059 104.479Z" fill="#367E34"/>
<mask id="mask0_1_5" style="mask-type:luminance" maskUnits="userSpaceOnUse" x="136" y="40" width="15" height="14">
<path d="M143.929 53.8483C139.762 53.865 136.808 51.2691 136.764 47.5486C136.72 43.7759 139.643 41.0028 143.683 40.9874C147.974 40.9719 150.962 43.6088 150.962 47.4284C150.962 51.191 148.072 53.8283 143.929 53.8483Z" fill="white"/>
</mask>
<g mask="url(#mask0_1_5)">
<path d="M143.929 53.8483C139.762 53.865 136.808 51.2691 136.764 47.5486C136.72 43.7759 139.643 41.0028 143.683 40.9874C147.974 40.9719 150.962 43.6088 150.962 47.4284C150.962 51.191 148.072 53.8283 143.929 53.8483Z" fill="url(#paint0_linear_1_5)"/>
</g>
<defs>
<linearGradient id="paint0_linear_1_5" x1="136.76" y1="47.4234" x2="150.96" y2="47.4234" gradientUnits="userSpaceOnUse">
<stop stop-color="#E8CD4D"/>
<stop offset="0.01" stop-color="#E8CD4D"/>
<stop offset="0.13" stop-color="#C89D31"/>
<stop offset="0.41" stop-color="#AB741D"/>
<stop offset="0.6" stop-color="#C09229"/>
<stop offset="0.77" stop-color="#D7B539"/>
<stop offset="0.88" stop-color="#CAA329"/>
<stop offset="1" stop-color="#BB911B"/>
</linearGradient>
</defs>
</svg>
