<?xml version="1.0" encoding="UTF-8" standalone="no"?>
<svg
   xmlns:dc="http://purl.org/dc/elements/1.1/"
   xmlns:cc="http://creativecommons.org/ns#"
   xmlns:rdf="http://www.w3.org/1999/02/22-rdf-syntax-ns#"
   xmlns:svg="http://www.w3.org/2000/svg"
   xmlns="http://www.w3.org/2000/svg"
   viewBox="0 0 384 453.54333"
   height="453.54333"
   width="384"
   xml:space="preserve"
   id="svg2"
   version="1.1"><metadata
     id="metadata8"><rdf:RDF><cc:Work
         rdf:about=""><dc:format>image/svg+xml</dc:format><dc:type
           rdf:resource="http://purl.org/dc/dcmitype/StillImage" /></cc:Work></rdf:RDF></metadata><defs
     id="defs6"><clipPath
       id="clipPath24"
       clipPathUnits="userSpaceOnUse"><path
         id="path22"
         d="m 143.9464,207.5213 c -3.1246,-0.0125 -5.3407,1.9344 -5.3733,4.7248 -0.0329,2.8295 2.1591,4.9093 5.1894,4.9209 3.2181,0.0116 5.4592,-1.9661 5.4592,-4.8308 0,-2.8219 -2.1674,-4.7999 -5.2753,-4.8149" /></clipPath><linearGradient
       id="linearGradient42"
       spreadMethod="pad"
       gradientUnits="userSpaceOnUse"
       y2="212.34"
       x2="149.22"
       y1="212.34"
       x1="138.57001"><stop
         id="stop26"
         offset="0"
         style="stop-opacity:1;stop-color:#e8cd4d" /><stop
         id="stop28"
         offset="0.01"
         style="stop-opacity:1;stop-color:#e8cd4d" /><stop
         id="stop30"
         offset="0.13"
         style="stop-opacity:1;stop-color:#c89d31" /><stop
         id="stop32"
         offset="0.41"
         style="stop-opacity:1;stop-color:#ab741d" /><stop
         id="stop34"
         offset="0.6"
         style="stop-opacity:1;stop-color:#c09229" /><stop
         id="stop36"
         offset="0.77"
         style="stop-opacity:1;stop-color:#d7b539" /><stop
         id="stop38"
         offset="0.88"
         style="stop-opacity:1;stop-color:#caa329" /><stop
         id="stop40"
         offset="1"
         style="stop-opacity:1;stop-color:#bb911b" /></linearGradient><clipPath
       id="clipPath74"
       clipPathUnits="userSpaceOnUse"><path
         id="path72"
         d="M 80.1235,103.5417 H 76.299 c -0.1015,0 -0.182,-0.0332 -0.2426,-0.0987 -0.0601,-0.0655 -0.0904,-0.1536 -0.0904,-0.2647 v -9.8725 c 0,-0.1007 0.0303,-0.184 0.0904,-0.2495 0.0606,-0.0655 0.1411,-0.0978 0.2426,-0.0978 h 0.756 c 0.0998,0 0.1831,0.0323 0.2495,0.0978 0.0646,0.0655 0.0978,0.1488 0.0978,0.2495 v 3.8103 h 2.7212 c 1.1393,0 2.0339,0.2721 2.6836,0.8167 0.65,0.5436 0.9751,1.3396 0.9751,2.3879 0,1.0488 -0.3251,1.8473 -0.9751,2.3967 -0.6497,0.549 -1.5443,0.8243 -2.6836,0.8243 z m -0.0757,-5.201 v 0 h -2.6455 v 3.9756 h 2.6455 c 0.7662,0 1.3383,-0.171 1.7159,-0.5134 0.3778,-0.3433 0.5672,-0.8374 0.5672,-1.4822 0,-1.3204 -0.7614,-1.98 -2.2831,-1.98" /></clipPath><linearGradient
       id="linearGradient92"
       spreadMethod="pad"
       gradientUnits="userSpaceOnUse"
       y2="98.25"
       x2="83.779999"
       y1="98.25"
       x1="75.970001"><stop
         id="stop76"
         offset="0"
         style="stop-opacity:1;stop-color:#e8cd4d" /><stop
         id="stop78"
         offset="0.01"
         style="stop-opacity:1;stop-color:#e8cd4d" /><stop
         id="stop80"
         offset="0.13"
         style="stop-opacity:1;stop-color:#c89d31" /><stop
         id="stop82"
         offset="0.41"
         style="stop-opacity:1;stop-color:#ab741d" /><stop
         id="stop84"
         offset="0.6"
         style="stop-opacity:1;stop-color:#c09229" /><stop
         id="stop86"
         offset="0.77"
         style="stop-opacity:1;stop-color:#d7b539" /><stop
         id="stop88"
         offset="0.88"
         style="stop-opacity:1;stop-color:#caa329" /><stop
         id="stop90"
         offset="1"
         style="stop-opacity:1;stop-color:#bb911b" /></linearGradient><clipPath
       id="clipPath102"
       clipPathUnits="userSpaceOnUse"><path
         id="path100"
         d="m 92.6864,97.4633 c 0.6857,0.1917 1.2192,0.5341 1.6024,1.0282 0.3833,0.494 0.5746,1.1242 0.5746,1.8895 0,1.0284 -0.3246,1.8119 -0.9751,2.3514 -0.6497,0.5391 -1.5492,0.8093 -2.6986,0.8093 h -3.689 c -0.1006,0 -0.1811,-0.0332 -0.2418,-0.0987 -0.0607,-0.0655 -0.0901,-0.1536 -0.0901,-0.2647 v -9.8725 c 0,-0.1007 0.0294,-0.184 0.0901,-0.2495 0.0607,-0.0655 0.1412,-0.0978 0.2418,-0.0978 h 0.7257 c 0.1006,0 0.1868,0.0323 0.2571,0.0978 0.0703,0.0655 0.1063,0.1488 0.1063,0.2495 v 3.9308 h 2.6909 l 2.2224,-3.8702 c 0.0703,-0.1309 0.1482,-0.2316 0.2338,-0.3024 0.0859,-0.0703 0.2047,-0.1055 0.3555,-0.1055 h 0.6656 c 0.0807,0 0.151,0.0304 0.2117,0.0902 0.0598,0.0606 0.0901,0.1309 0.0901,0.2123 0,0.0504 -0.015,0.1054 -0.0447,0.1661 z m -1.5574,1.0131 v 0 h -2.5392 v 3.8399 h 2.5392 c 1.5225,0 2.2831,-0.6401 2.2831,-1.92 0,-1.2798 -0.7606,-1.9199 -2.2831,-1.9199" /></clipPath><linearGradient
       id="linearGradient120"
       spreadMethod="pad"
       gradientUnits="userSpaceOnUse"
       y2="98.25"
       x2="95.059998"
       y1="98.25"
       x1="87.169998"><stop
         id="stop104"
         offset="0"
         style="stop-opacity:1;stop-color:#e8cd4d" /><stop
         id="stop106"
         offset="0.01"
         style="stop-opacity:1;stop-color:#e8cd4d" /><stop
         id="stop108"
         offset="0.13"
         style="stop-opacity:1;stop-color:#c89d31" /><stop
         id="stop110"
         offset="0.41"
         style="stop-opacity:1;stop-color:#ab741d" /><stop
         id="stop112"
         offset="0.6"
         style="stop-opacity:1;stop-color:#c09229" /><stop
         id="stop114"
         offset="0.77"
         style="stop-opacity:1;stop-color:#d7b539" /><stop
         id="stop116"
         offset="0.88"
         style="stop-opacity:1;stop-color:#caa329" /><stop
         id="stop118"
         offset="1"
         style="stop-opacity:1;stop-color:#bb911b" /></linearGradient><clipPath
       id="clipPath130"
       clipPathUnits="userSpaceOnUse"><path
         id="path128"
         d="m 103.2545,103.2086 c -0.0813,0.222 -0.2426,0.3331 -0.4844,0.3331 h -0.9678 c -0.2418,0 -0.4031,-0.1111 -0.4836,-0.3331 L 97.5696,93.4271 97.5393,93.261 c 0,-0.0814 0.0303,-0.1517 0.091,-0.2123 0.0601,-0.0598 0.1304,-0.0902 0.2109,-0.0902 h 0.7265 c 0.1709,0 0.2968,0.0853 0.3776,0.2571 l 0.8317,2.177 h 5.0037 l 0.847,-2.177 c 0.0201,-0.0606 0.0629,-0.1185 0.1284,-0.1737 0.0652,-0.0559 0.1488,-0.0834 0.2494,-0.0834 h 0.7104 c 0.0805,0 0.1536,0.0304 0.2191,0.0902 0.0655,0.0606 0.0987,0.1309 0.0987,0.2123 l -0.0304,0.1661 z m -3.0393,-6.5611 v 0 l 2.071,5.4275 2.0716,-5.4275 z" /></clipPath><linearGradient
       id="linearGradient148"
       spreadMethod="pad"
       gradientUnits="userSpaceOnUse"
       y2="98.25"
       x2="107.03"
       y1="98.25"
       x1="97.540001"><stop
         id="stop132"
         offset="0"
         style="stop-opacity:1;stop-color:#e8cd4d" /><stop
         id="stop134"
         offset="0.01"
         style="stop-opacity:1;stop-color:#e8cd4d" /><stop
         id="stop136"
         offset="0.13"
         style="stop-opacity:1;stop-color:#c89d31" /><stop
         id="stop138"
         offset="0.41"
         style="stop-opacity:1;stop-color:#ab741d" /><stop
         id="stop140"
         offset="0.6"
         style="stop-opacity:1;stop-color:#c09229" /><stop
         id="stop142"
         offset="0.77"
         style="stop-opacity:1;stop-color:#d7b539" /><stop
         id="stop144"
         offset="0.88"
         style="stop-opacity:1;stop-color:#caa329" /><stop
         id="stop146"
         offset="1"
         style="stop-opacity:1;stop-color:#bb911b" /></linearGradient><clipPath
       id="clipPath158"
       clipPathUnits="userSpaceOnUse"><path
         id="path156"
         d="m 112.5363,98.4764 4.7171,4.5661 c 0.0505,0.0496 0.076,0.1159 0.076,0.1964 0,0.0808 -0.0303,0.1511 -0.091,0.2118 -0.0607,0.0598 -0.131,0.091 -0.2118,0.091 h -0.756 c -0.2321,0 -0.4286,-0.0814 -0.589,-0.2421 l -4.0978,-3.886 v 3.7647 c 0,0.1111 -0.0328,0.1992 -0.0978,0.2647 -0.066,0.0655 -0.1536,0.0987 -0.2644,0.0987 h -0.7112 c -0.1007,0 -0.1806,-0.0332 -0.2421,-0.0987 -0.0598,-0.0655 -0.0902,-0.1536 -0.0902,-0.2647 v -9.8725 c 0,-0.1007 0.0304,-0.184 0.0902,-0.2495 0.0615,-0.0655 0.1414,-0.0978 0.2421,-0.0978 h 0.7112 c 0.1006,0 0.1859,0.0323 0.2562,0.0978 0.0709,0.0655 0.106,0.1488 0.106,0.2495 v 4.1728 l 4.3844,-4.2783 c 0.091,-0.0703 0.1763,-0.1287 0.2571,-0.1743 0.0805,-0.0448 0.1916,-0.0675 0.3328,-0.0675 h 0.7863 c 0.0799,0 0.1508,0.0304 0.2115,0.0902 0.0601,0.0606 0.0904,0.1309 0.0904,0.2123 0,0.0799 -0.0249,0.1511 -0.0751,0.2117 z" /></clipPath><linearGradient
       id="linearGradient176"
       spreadMethod="pad"
       gradientUnits="userSpaceOnUse"
       y2="98.25"
       x2="117.65"
       y1="98.25"
       x1="110.18"><stop
         id="stop160"
         offset="0"
         style="stop-opacity:1;stop-color:#e8cd4d" /><stop
         id="stop162"
         offset="0.01"
         style="stop-opacity:1;stop-color:#e8cd4d" /><stop
         id="stop164"
         offset="0.13"
         style="stop-opacity:1;stop-color:#c89d31" /><stop
         id="stop166"
         offset="0.41"
         style="stop-opacity:1;stop-color:#ab741d" /><stop
         id="stop168"
         offset="0.6"
         style="stop-opacity:1;stop-color:#c09229" /><stop
         id="stop170"
         offset="0.77"
         style="stop-opacity:1;stop-color:#d7b539" /><stop
         id="stop172"
         offset="0.88"
         style="stop-opacity:1;stop-color:#caa329" /><stop
         id="stop174"
         offset="1"
         style="stop-opacity:1;stop-color:#bb911b" /></linearGradient><clipPath
       id="clipPath186"
       clipPathUnits="userSpaceOnUse"><path
         id="path184"
         d="m 126.2486,97.4633 c 0.6851,0.1917 1.2192,0.5341 1.6024,1.0282 0.383,0.494 0.5746,1.1242 0.5746,1.8895 0,1.0284 -0.3251,1.8119 -0.9751,2.3514 -0.6497,0.5391 -1.5497,0.8093 -2.6986,0.8093 h -3.689 c -0.1006,0 -0.1811,-0.0332 -0.2418,-0.0987 -0.0607,-0.0655 -0.091,-0.1536 -0.091,-0.2647 v -9.8725 c 0,-0.1007 0.0303,-0.184 0.091,-0.2495 0.0607,-0.0655 0.1412,-0.0978 0.2418,-0.0978 h 0.7257 c 0.1006,0 0.1868,0.0323 0.2571,0.0978 0.0703,0.0655 0.106,0.1488 0.106,0.2495 v 3.9308 h 2.6906 l 2.2224,-3.8702 c 0.0703,-0.1309 0.1488,-0.2316 0.2341,-0.3024 0.0862,-0.0703 0.2047,-0.1055 0.3558,-0.1055 h 0.665 c 0.0805,0 0.1516,0.0304 0.2115,0.0902 0.0606,0.0606 0.0909,0.1309 0.0909,0.2123 0,0.0504 -0.015,0.1054 -0.0453,0.1661 z m -1.5574,1.0131 v 0 h -2.5395 v 3.8399 h 2.5395 c 1.5222,0 2.2831,-0.6401 2.2831,-1.92 0,-1.2798 -0.7609,-1.9199 -2.2831,-1.9199" /></clipPath><linearGradient
       id="linearGradient204"
       spreadMethod="pad"
       gradientUnits="userSpaceOnUse"
       y2="98.25"
       x2="128.62"
       y1="98.25"
       x1="120.73"><stop
         id="stop188"
         offset="0"
         style="stop-opacity:1;stop-color:#e8cd4d" /><stop
         id="stop190"
         offset="0.01"
         style="stop-opacity:1;stop-color:#e8cd4d" /><stop
         id="stop192"
         offset="0.13"
         style="stop-opacity:1;stop-color:#c89d31" /><stop
         id="stop194"
         offset="0.41"
         style="stop-opacity:1;stop-color:#ab741d" /><stop
         id="stop196"
         offset="0.6"
         style="stop-opacity:1;stop-color:#c09229" /><stop
         id="stop198"
         offset="0.77"
         style="stop-opacity:1;stop-color:#d7b539" /><stop
         id="stop200"
         offset="0.88"
         style="stop-opacity:1;stop-color:#caa329" /><stop
         id="stop202"
         offset="1"
         style="stop-opacity:1;stop-color:#bb911b" /></linearGradient><clipPath
       id="clipPath214"
       clipPathUnits="userSpaceOnUse"><path
         id="path212"
         d="m 144.4116,103.5417 h -7.2567 c -0.1012,0 -0.184,-0.0332 -0.2495,-0.0987 -0.066,-0.0655 -0.0986,-0.1536 -0.0986,-0.2647 v -0.5899 c 0,-0.1007 0.0326,-0.184 0.0986,-0.2495 0.0655,-0.0655 0.1483,-0.0978 0.2495,-0.0978 h 2.918 v -8.9353 c 0,-0.1007 0.0323,-0.184 0.0978,-0.2495 0.0655,-0.0655 0.1488,-0.0978 0.2494,-0.0978 h 0.7257 c 0.1006,0 0.1859,0.0323 0.2571,0.0978 0.0703,0.0655 0.106,0.1488 0.106,0.2495 v 8.9353 h 2.9027 c 0.1006,0 0.184,0.0323 0.2494,0.0978 0.0655,0.0655 0.0987,0.1488 0.0987,0.2495 v 0.5899 c 0,0.1111 -0.0303,0.1992 -0.091,0.2647 -0.0607,0.0655 -0.1463,0.0987 -0.2571,0.0987" /></clipPath><linearGradient
       id="linearGradient232"
       spreadMethod="pad"
       gradientUnits="userSpaceOnUse"
       y2="98.25"
       x2="144.75999"
       y1="98.25"
       x1="136.81"><stop
         id="stop216"
         offset="0"
         style="stop-opacity:1;stop-color:#e8cd4d" /><stop
         id="stop218"
         offset="0.01"
         style="stop-opacity:1;stop-color:#e8cd4d" /><stop
         id="stop220"
         offset="0.13"
         style="stop-opacity:1;stop-color:#c89d31" /><stop
         id="stop222"
         offset="0.41"
         style="stop-opacity:1;stop-color:#ab741d" /><stop
         id="stop224"
         offset="0.6"
         style="stop-opacity:1;stop-color:#c09229" /><stop
         id="stop226"
         offset="0.77"
         style="stop-opacity:1;stop-color:#d7b539" /><stop
         id="stop228"
         offset="0.88"
         style="stop-opacity:1;stop-color:#caa329" /><stop
         id="stop230"
         offset="1"
         style="stop-opacity:1;stop-color:#bb911b" /></linearGradient><clipPath
       id="clipPath242"
       clipPathUnits="userSpaceOnUse"><path
         id="path240"
         d="m 149.0831,103.5417 h -0.756 c -0.1012,0 -0.1811,-0.0332 -0.2424,-0.0987 -0.0601,-0.0655 -0.0904,-0.1488 -0.0904,-0.2494 v -9.8878 c 0,-0.1007 0.0303,-0.184 0.0904,-0.2495 0.0613,-0.0655 0.1412,-0.0978 0.2424,-0.0978 h 0.756 c 0.1,0 0.1834,0.0323 0.2494,0.0978 0.0649,0.0655 0.0981,0.1488 0.0981,0.2495 v 9.8878 c 0,0.1108 -0.0303,0.1964 -0.091,0.2571 -0.0601,0.0598 -0.1462,0.091 -0.2565,0.091" /></clipPath><linearGradient
       id="linearGradient260"
       spreadMethod="pad"
       gradientUnits="userSpaceOnUse"
       y2="98.25"
       x2="149.42999"
       y1="98.25"
       x1="147.99001"><stop
         id="stop244"
         offset="0"
         style="stop-opacity:1;stop-color:#e8cd4d" /><stop
         id="stop246"
         offset="0.01"
         style="stop-opacity:1;stop-color:#e8cd4d" /><stop
         id="stop248"
         offset="0.13"
         style="stop-opacity:1;stop-color:#c89d31" /><stop
         id="stop250"
         offset="0.41"
         style="stop-opacity:1;stop-color:#ab741d" /><stop
         id="stop252"
         offset="0.6"
         style="stop-opacity:1;stop-color:#c09229" /><stop
         id="stop254"
         offset="0.77"
         style="stop-opacity:1;stop-color:#d7b539" /><stop
         id="stop256"
         offset="0.88"
         style="stop-opacity:1;stop-color:#caa329" /><stop
         id="stop258"
         offset="1"
         style="stop-opacity:1;stop-color:#bb911b" /></linearGradient><clipPath
       id="clipPath270"
       clipPathUnits="userSpaceOnUse"><path
         id="path268"
         d="m 133.4503,103.5417 h -0.756 c -0.1006,0 -0.1814,-0.0332 -0.2421,-0.0987 -0.0606,-0.0655 -0.091,-0.1488 -0.091,-0.2494 v -9.8878 c 0,-0.1007 0.0304,-0.184 0.091,-0.2495 0.0607,-0.0655 0.1415,-0.0978 0.2421,-0.0978 h 0.756 c 0.1003,0 0.1831,0.0323 0.2494,0.0978 0.0655,0.0655 0.0978,0.1488 0.0978,0.2495 v 9.8878 c 0,0.1108 -0.0303,0.1964 -0.0904,0.2571 -0.0606,0.0598 -0.1465,0.091 -0.2568,0.091" /></clipPath><linearGradient
       id="linearGradient288"
       spreadMethod="pad"
       gradientUnits="userSpaceOnUse"
       y2="98.25"
       x2="133.8"
       y1="98.25"
       x1="132.36"><stop
         id="stop272"
         offset="0"
         style="stop-opacity:1;stop-color:#e8cd4d" /><stop
         id="stop274"
         offset="0.01"
         style="stop-opacity:1;stop-color:#e8cd4d" /><stop
         id="stop276"
         offset="0.13"
         style="stop-opacity:1;stop-color:#c89d31" /><stop
         id="stop278"
         offset="0.41"
         style="stop-opacity:1;stop-color:#ab741d" /><stop
         id="stop280"
         offset="0.6"
         style="stop-opacity:1;stop-color:#c09229" /><stop
         id="stop282"
         offset="0.77"
         style="stop-opacity:1;stop-color:#d7b539" /><stop
         id="stop284"
         offset="0.88"
         style="stop-opacity:1;stop-color:#caa329" /><stop
         id="stop286"
         offset="1"
         style="stop-opacity:1;stop-color:#bb911b" /></linearGradient><clipPath
       id="clipPath298"
       clipPathUnits="userSpaceOnUse"><path
         id="path296"
         d="m 155.9614,98.4764 4.7171,4.5661 c 0.0504,0.0496 0.076,0.1159 0.076,0.1964 0,0.0808 -0.0304,0.1511 -0.091,0.2118 -0.0607,0.0598 -0.131,0.091 -0.2118,0.091 h -0.756 c -0.2321,0 -0.4286,-0.0814 -0.589,-0.2421 l -4.0978,-3.886 v 3.7647 c 0,0.1111 -0.0329,0.1992 -0.0978,0.2647 -0.066,0.0655 -0.1536,0.0987 -0.2653,0.0987 h -0.7098 c -0.1012,0 -0.1811,-0.0332 -0.2426,-0.0987 -0.0599,-0.0655 -0.0902,-0.1536 -0.0902,-0.2647 v -9.8725 c 0,-0.1007 0.0303,-0.184 0.0902,-0.2495 0.0615,-0.0655 0.1414,-0.0978 0.2426,-0.0978 h 0.7098 c 0.1015,0 0.1868,0.0323 0.2571,0.0978 0.0709,0.0655 0.106,0.1488 0.106,0.2495 v 4.1728 l 4.3844,-4.2783 c 0.091,-0.0703 0.1766,-0.1287 0.2571,-0.1743 0.0805,-0.0448 0.1907,-0.0675 0.3327,-0.0675 h 0.7864 c 0.0808,0 0.1508,0.0304 0.2114,0.0902 0.0601,0.0606 0.0905,0.1309 0.0905,0.2123 0,0.0799 -0.025,0.1511 -0.0751,0.2117 z" /></clipPath><linearGradient
       id="linearGradient316"
       spreadMethod="pad"
       gradientUnits="userSpaceOnUse"
       y2="98.25"
       x2="161.07001"
       y1="98.25"
       x1="153.60001"><stop
         id="stop300"
         offset="0"
         style="stop-opacity:1;stop-color:#e8cd4d" /><stop
         id="stop302"
         offset="0.01"
         style="stop-opacity:1;stop-color:#e8cd4d" /><stop
         id="stop304"
         offset="0.13"
         style="stop-opacity:1;stop-color:#c89d31" /><stop
         id="stop306"
         offset="0.41"
         style="stop-opacity:1;stop-color:#ab741d" /><stop
         id="stop308"
         offset="0.6"
         style="stop-opacity:1;stop-color:#c09229" /><stop
         id="stop310"
         offset="0.77"
         style="stop-opacity:1;stop-color:#d7b539" /><stop
         id="stop312"
         offset="0.88"
         style="stop-opacity:1;stop-color:#caa329" /><stop
         id="stop314"
         offset="1"
         style="stop-opacity:1;stop-color:#bb911b" /></linearGradient><clipPath
       id="clipPath326"
       clipPathUnits="userSpaceOnUse"><path
         id="path324"
         d="m 176.9153,103.5417 h -0.7256 c -0.1111,0 -0.1965,-0.0332 -0.2571,-0.0987 -0.0607,-0.0655 -0.091,-0.1536 -0.091,-0.2647 v -6.1685 c 0,-0.9771 -0.2288,-1.7104 -0.6877,-2.1997 -0.4589,-0.4884 -1.1061,-0.733 -1.9429,-0.733 -0.847,0 -1.4987,0.2418 -1.9576,0.7256 -0.4592,0.4845 -0.688,1.2198 -0.688,2.2071 v 6.1685 c 0,0.1111 -0.0323,0.1992 -0.0983,0.2647 -0.0655,0.0655 -0.1537,0.0987 -0.2639,0.0987 h -0.7257 c -0.1015,0 -0.182,-0.0332 -0.2426,-0.0987 -0.0601,-0.0655 -0.0905,-0.1536 -0.0905,-0.2647 v -6.1382 c 0,-1.4207 0.353,-2.482 1.0588,-3.1821 0.705,-0.7011 1.7076,-1.0503 3.0078,-1.0503 1.2997,0 2.3003,0.3492 3.0013,1.0503 0.7002,0.7001 1.0503,1.7614 1.0503,3.1821 v 6.1382 c 0,0.1111 -0.0323,0.1992 -0.0978,0.2647 -0.0663,0.0655 -0.1491,0.0987 -0.2495,0.0987" /></clipPath><linearGradient
       id="linearGradient344"
       spreadMethod="pad"
       gradientUnits="userSpaceOnUse"
       y2="98.169998"
       x2="177.25999"
       y1="98.169998"
       x1="169.14"><stop
         id="stop328"
         offset="0"
         style="stop-opacity:1;stop-color:#e8cd4d" /><stop
         id="stop330"
         offset="0.01"
         style="stop-opacity:1;stop-color:#e8cd4d" /><stop
         id="stop332"
         offset="0.13"
         style="stop-opacity:1;stop-color:#c89d31" /><stop
         id="stop334"
         offset="0.41"
         style="stop-opacity:1;stop-color:#ab741d" /><stop
         id="stop336"
         offset="0.6"
         style="stop-opacity:1;stop-color:#c09229" /><stop
         id="stop338"
         offset="0.77"
         style="stop-opacity:1;stop-color:#d7b539" /><stop
         id="stop340"
         offset="0.88"
         style="stop-opacity:1;stop-color:#caa329" /><stop
         id="stop342"
         offset="1"
         style="stop-opacity:1;stop-color:#bb911b" /></linearGradient><clipPath
       id="clipPath354"
       clipPathUnits="userSpaceOnUse"><path
         id="path352"
         d="m 186.8477,97.4633 c 0.6857,0.1917 1.2191,0.5341 1.6029,1.0282 0.3824,0.494 0.5741,1.1242 0.5741,1.8895 0,1.0284 -0.3252,1.8119 -0.9752,2.3514 -0.6499,0.5391 -1.5491,0.8093 -2.6985,0.8093 h -3.689 c -0.1007,0 -0.1812,-0.0332 -0.2418,-0.0987 -0.0607,-0.0655 -0.0905,-0.1536 -0.0905,-0.2647 v -9.8725 c 0,-0.1007 0.0298,-0.184 0.0905,-0.2495 0.0606,-0.0655 0.1411,-0.0978 0.2418,-0.0978 h 0.7256 c 0.1007,0 0.1868,0.0323 0.2571,0.0978 0.0703,0.0655 0.106,0.1488 0.106,0.2495 v 3.9308 h 2.6913 l 2.2217,-3.8702 c 0.0709,-0.1309 0.1494,-0.2316 0.235,-0.3024 0.0854,-0.0703 0.2039,-0.1055 0.3549,-0.1055 h 0.6656 c 0.0799,0 0.1508,0.0304 0.2115,0.0902 0.0606,0.0606 0.0904,0.1309 0.0904,0.2123 0,0.0504 -0.0145,0.1054 -0.0448,0.1661 z m -1.5574,1.0131 v 0 h -2.5396 v 3.8399 h 2.5396 c 1.5222,0 2.283,-0.6401 2.283,-1.92 0,-1.2798 -0.7608,-1.9199 -2.283,-1.9199" /></clipPath><linearGradient
       id="linearGradient372"
       spreadMethod="pad"
       gradientUnits="userSpaceOnUse"
       y2="98.25"
       x2="189.22"
       y1="98.25"
       x1="181.33"><stop
         id="stop356"
         offset="0"
         style="stop-opacity:1;stop-color:#e8cd4d" /><stop
         id="stop358"
         offset="0.01"
         style="stop-opacity:1;stop-color:#e8cd4d" /><stop
         id="stop360"
         offset="0.13"
         style="stop-opacity:1;stop-color:#c89d31" /><stop
         id="stop362"
         offset="0.41"
         style="stop-opacity:1;stop-color:#ab741d" /><stop
         id="stop364"
         offset="0.6"
         style="stop-opacity:1;stop-color:#c09229" /><stop
         id="stop366"
         offset="0.77"
         style="stop-opacity:1;stop-color:#d7b539" /><stop
         id="stop368"
         offset="0.88"
         style="stop-opacity:1;stop-color:#caa329" /><stop
         id="stop370"
         offset="1"
         style="stop-opacity:1;stop-color:#bb911b" /></linearGradient><clipPath
       id="clipPath382"
       clipPathUnits="userSpaceOnUse"><path
         id="path380"
         d="M 199.3354,103.5417 H 192.85 c -0.1012,0 -0.1845,-0.0332 -0.2494,-0.0987 -0.0661,-0.0655 -0.0987,-0.1488 -0.0987,-0.2494 v -0.5749 c 0,-0.1006 0.0326,-0.184 0.0987,-0.2494 0.0649,-0.0655 0.1482,-0.0978 0.2494,-0.0978 h 5.3966 V 96.859 c 0,-0.8572 -0.2086,-1.5375 -0.627,-2.0412 -0.4184,-0.5038 -1.0103,-0.756 -1.7759,-0.756 -0.6659,0 -1.2198,0.1564 -1.6637,0.4685 -0.4436,0.313 -0.6953,0.7968 -0.756,1.4514 -0.0303,0.2324 -0.1564,0.3481 -0.3775,0.3481 h -0.7711 c -0.091,0 -0.1661,-0.0332 -0.2267,-0.0987 -0.0607,-0.0655 -0.091,-0.1431 -0.091,-0.2341 0.0405,-1.0483 0.4209,-1.8423 1.1412,-2.3811 0.7208,-0.5389 1.6305,-0.8082 2.7289,-0.8082 0.796,0 1.4865,0.1661 2.0716,0.4981 0.5842,0.333 1.0301,0.8016 1.3376,1.4065 0.3079,0.6044 0.4618,1.3102 0.4618,2.1164 v 6.3496 c 0,0.1111 -0.0332,0.1992 -0.0986,0.2647 -0.0655,0.0655 -0.1537,0.0987 -0.2648,0.0987" /></clipPath><linearGradient
       id="linearGradient400"
       spreadMethod="pad"
       gradientUnits="userSpaceOnUse"
       y2="98.169998"
       x2="199.7"
       y1="98.169998"
       x1="191.96001"><stop
         id="stop384"
         offset="0"
         style="stop-opacity:1;stop-color:#e8cd4d" /><stop
         id="stop386"
         offset="0.01"
         style="stop-opacity:1;stop-color:#e8cd4d" /><stop
         id="stop388"
         offset="0.13"
         style="stop-opacity:1;stop-color:#c89d31" /><stop
         id="stop390"
         offset="0.41"
         style="stop-opacity:1;stop-color:#ab741d" /><stop
         id="stop392"
         offset="0.6"
         style="stop-opacity:1;stop-color:#c09229" /><stop
         id="stop394"
         offset="0.77"
         style="stop-opacity:1;stop-color:#d7b539" /><stop
         id="stop396"
         offset="0.88"
         style="stop-opacity:1;stop-color:#caa329" /><stop
         id="stop398"
         offset="1"
         style="stop-opacity:1;stop-color:#bb911b" /></linearGradient><clipPath
       id="clipPath410"
       clipPathUnits="userSpaceOnUse"><path
         id="path408"
         d="m 212.0046,93.4271 -3.7489,9.7815 c -0.0807,0.222 -0.2426,0.3331 -0.4844,0.3331 h -0.9677 c -0.2418,0 -0.4031,-0.1111 -0.4836,-0.3331 l -3.7491,-9.7815 -0.0304,-0.1661 c 0,-0.0814 0.0304,-0.1517 0.091,-0.2123 0.0601,-0.0598 0.131,-0.0902 0.2118,-0.0902 h 0.7256 c 0.1715,0 0.2968,0.0853 0.3782,0.2571 l 0.8305,2.177 h 5.0052 l 0.8461,-2.177 c 0.0201,-0.0606 0.0629,-0.1185 0.1284,-0.1737 0.0652,-0.0559 0.1488,-0.0834 0.2495,-0.0834 h 0.7103 c 0.0814,0 0.1545,0.0304 0.2192,0.0902 0.0654,0.0606 0.0986,0.1309 0.0986,0.2123 z m -6.7882,3.2204 v 0 l 2.071,5.4275 2.0716,-5.4275 z" /></clipPath><linearGradient
       id="linearGradient428"
       spreadMethod="pad"
       gradientUnits="userSpaceOnUse"
       y2="98.25"
       x2="212.03"
       y1="98.25"
       x1="202.53999"><stop
         id="stop412"
         offset="0"
         style="stop-opacity:1;stop-color:#e8cd4d" /><stop
         id="stop414"
         offset="0.01"
         style="stop-opacity:1;stop-color:#e8cd4d" /><stop
         id="stop416"
         offset="0.13"
         style="stop-opacity:1;stop-color:#c89d31" /><stop
         id="stop418"
         offset="0.41"
         style="stop-opacity:1;stop-color:#ab741d" /><stop
         id="stop420"
         offset="0.6"
         style="stop-opacity:1;stop-color:#c09229" /><stop
         id="stop422"
         offset="0.77"
         style="stop-opacity:1;stop-color:#d7b539" /><stop
         id="stop424"
         offset="0.88"
         style="stop-opacity:1;stop-color:#caa329" /><stop
         id="stop426"
         offset="1"
         style="stop-opacity:1;stop-color:#bb911b" /></linearGradient></defs><g
     transform="matrix(1.3333333,0,0,-1.3333333,0,453.54333)"
     id="g10"><g
       id="g12"><g
         id="g14"><path
           id="path16"
           style="fill:#367e34;fill-opacity:1;fill-rule:nonzero;stroke:none"
           d="m 105.2419,176.711 c -3.4353,2.7232 -7.4469,4.1085 -11.6994,4.8308 -8.9065,1.5069 -17.4977,0.3685 -25.8971,-2.814 -5.9499,-2.2567 -12.1734,-3.5124 -18.6264,-3.3043 -5.0624,0.1647 -9.0499,2.7277 -12.8931,5.5491 -0.1435,0.106 -0.1806,0.3415 -0.0207,0.8985 1.1902,-0.5768 2.4086,-1.1324 3.5657,-1.7637 3.484,-1.9031 7.1484,-2.6144 11.0942,-1.6957 7.0169,1.6317 13.4084,4.6764 19.5301,8.2625 4.159,2.4375 8.4646,4.8214 13.2534,5.7744 7.2131,1.4369 14.4139,1.124 21.4844,-1.0185 6.0562,-1.8374 11.6132,-4.7276 16.8803,-8.1221 4.1383,-2.6685 8.5873,-4.8625 13.4376,-6.103 0.2534,-0.0629 0.5154,-0.0277 1.2878,-0.1647 -0.6622,0.5732 -0.9366,0.8476 -1.2472,1.0749 -5.5208,4.019 -8.1496,9.4386 -8.5507,15.9962 -0.5803,9.5596 2.6991,18.0752 7.4301,26.2579 4.3305,7.4875 7.5288,15.3879 8.845,23.9108 0.1392,0.8912 0.2253,1.7898 0.3682,2.6808 0.0164,0.102 0.2452,0.1723 0.5808,0.3889 0.1758,-0.4323 0.421,-0.7776 0.4459,-1.1345 0.4377,-7.0168 2.9316,-13.4883 5.8762,-19.8022 2.2984,-4.9252 5.0908,-9.6347 7.3194,-14.5868 2.6172,-5.8204 3.7542,-11.9696 3.2065,-18.3467 -0.5363,-6.2277 -3.1328,-11.412 -8.3792,-15.2623 -0.3433,-0.2509 -0.6746,-0.5788 -0.9077,-1.1758 0.4783,0.1139 0.9525,0.233 1.4315,0.3543 5.9823,1.5148 11.024,4.9102 16.189,7.9946 10.2804,6.1415 21.3783,9.2531 33.5194,7.393 4.9481,-0.7574 9.4377,-2.9741 13.703,-5.4621 6.4612,-3.7675 13.1263,-7.1952 20.5401,-8.9138 3.9501,-0.9145 7.6101,-0.2075 11.0985,1.6877 1.1613,0.6319 2.3839,1.1914 3.5781,1.7725 0.1061,-0.1573 0.2081,-0.3143 0.315,-0.4756 -0.315,-0.3135 -0.6058,-0.6554 -0.9533,-0.9295 -5.8147,-4.576 -12.4396,-6.1968 -19.7388,-4.5173 -5.1279,1.1812 -10.1494,2.7902 -15.2243,4.1913 -10.2722,2.8296 -20.4375,3.1437 -30.3783,-1.2557 -1.1495,-0.51 -2.217,-1.1812 -3.2142,-2.0721 0.2571,0.051 0.5312,0.0708 0.7766,0.1612 9.1435,3.4022 18.504,4.305 28.056,1.9503 5.6599,-1.3978 11.2453,-3.0688 16.8763,-4.5601 4.9479,-1.3108 9.9414,-1.9035 15.012,-0.601 1.2226,0.3144 1.709,-0.259 1.1696,-1.2395 -0.5811,-1.0599 -1.317,-2.1586 -2.2743,-2.8891 -9.7891,-7.4914 -20.5477,-13.409 -32.1369,-17.9263 -8.8203,-3.4373 -17.9762,-3.7242 -27.1196,-1.7773 -5.4635,1.1613 -10.7224,3.2017 -16.0954,4.7639 -3.6683,1.0675 -7.397,1.9462 -11.0654,3.0061 -0.6828,0.1964 -1.6029,0.7892 -1.7175,1.3343 -0.1224,0.5884 0.3889,1.5463 0.9366,1.9817 6.5628,5.2154 13.2778,10.2662 19.7671,15.5642 6.9273,5.6551 14.9012,8.3114 23.8938,8.7514 6.9148,0.3376 13.3348,-1.5384 19.7878,-3.4342 3.9906,-1.1727 7.9898,-2.3307 11.9894,-3.4849 0.3068,-0.0902 0.65,-0.1143 1.071,0.1015 -0.7195,0.2783 -1.4596,0.5221 -2.1507,0.8475 -4.1873,1.982 -8.4688,3.9019 -12.5209,6.1155 -5.8521,3.1907 -11.9367,5.1015 -18.7659,4.9686 -9.2455,-0.1806 -17.8863,-2.2108 -25.7661,-6.9472 -1.84,-1.1069 -3.7088,-2.1852 -5.5122,-3.3429 -5.3731,-3.45 -11.2661,-5.9253 -17.6205,-6.7178 -10.182,-1.2674 -19.5259,1.3637 -28.1097,6.7521 -3.2996,2.0721 -6.702,4.1168 -10.2269,5.8122 -6.6535,3.1989 -13.822,4.2278 -21.2272,4.4552 -8.0637,0.2474 -14.8068,-2.9129 -21.4886,-6.6606 -3.2514,-1.8247 -6.821,-3.147 -10.2481,-4.6735 -0.4453,-0.1998 -0.9159,-0.3495 -1.3777,-0.5258 0.0406,-0.1454 0.0814,-0.2942 0.1185,-0.4397 2.077,0.5259 4.1706,1.0046 6.2278,1.5815 5.8232,1.6367 11.5395,3.8225 17.473,4.8702 11.9653,2.1115 23.0757,-0.0746 32.5871,-7.8327 4.801,-3.9172 9.5527,-7.8885 14.3903,-11.7615 1.7499,-1.4009 3.7622,-2.5002 5.5083,-3.9047 0.6134,-0.4904 1.0959,-1.4877 1.0627,-2.2292 -0.0201,-0.4396 -1.108,-1.0088 -1.811,-1.2206 -4.1837,-1.2671 -8.477,-2.2326 -12.5748,-3.708 -7.7817,-2.7986 -15.6776,-4.8552 -24.0361,-5.1653 -9.1029,-0.3367 -17.3262,2.4058 -25.3168,6.2085 -8.5708,4.0818 -16.7454,8.7596 -24.2079,14.5207 -1.0352,0.7965 -1.7909,2.0055 -2.4582,3.1391 -0.4699,0.8008 -0.0116,1.4009 1.0228,1.1418 7.9574,-1.997 15.2691,0.5182 22.6786,2.787 7.3939,2.2638 14.9136,4.0966 22.8098,3.536 4.8625,-0.3462 9.6058,-1.2289 14.161,-2.9518 0.4051,-0.1445 0.8056,-0.2976 1.2025,-0.4546 z m 33.7034,15.6894 v 0 c 0.1632,0.007 0.3308,0.0156 0.4949,0.0233 1.0956,2.4375 2.1713,4.8818 3.3038,7.3034 0.2741,0.5846 0.7358,1.0869 1.108,1.6286 0.4133,-0.5653 0.9281,-1.0834 1.2189,-1.6994 1.1447,-2.4092 2.2164,-4.8461 3.496,-7.6723 1.6685,2.8647 4.212,3.862 6.6818,4.9723 0.597,0.2673 1.2433,0.6009 1.6319,1.0757 0.3963,0.4822 0.7685,1.2203 0.6948,1.7895 -0.887,6.5262 -2.9109,12.6953 -6.1333,18.5426 -1.9262,3.4883 -3.5538,7.1379 -5.1319,10.7918 -0.9408,2.1784 -1.5176,4.5014 -2.3272,6.9741 -0.2412,-0.3771 -0.3558,-0.495 -0.3963,-0.6285 -1.6931,-5.5525 -3.689,-10.98 -6.6331,-16.0699 -3.2711,-5.6517 -5.5737,-11.6436 -6.5143,-18.0879 -0.4376,-2.9982 -0.3962,-3.2297 2.4741,-4.5439 2.3188,-1.0675 4.7149,-2.0214 6.0319,-4.3994 z m -31.4955,-20.8933 v 0 c 0.8138,-11.844 -4.6006,-18.339 -16.2629,-20.2694 3.8035,-0.0241 7.6101,-0.1295 11.2495,0.5726 8.1953,1.5741 16.1567,3.9991 23.8241,7.2366 0.4575,0.1924 1.0508,0.6202 1.1081,1.0048 0.053,0.3612 -0.4252,0.942 -0.8263,1.2005 -3.1527,2.0055 -6.2601,4.1052 -9.548,5.883 -2.9729,1.6011 -6.1628,2.8415 -9.5445,4.3719 z m 73.0868,-0.0434 v 0 c -2.9563,-1.2322 -5.6143,-2.084 -8.0022,-3.3871 -3.8687,-2.1149 -7.5694,-4.5164 -11.3114,-6.8437 -0.3963,-0.2474 -0.9119,-0.9379 -0.8016,-1.1928 0.2007,-0.4515 0.7815,-0.8753 1.2963,-1.0516 5.7744,-1.9511 11.5486,-3.913 17.3636,-5.7535 5.2378,-1.656 10.6478,-2.3114 16.1643,-2.0642 0.4416,0.0193 0.8833,0.1137 1.3252,0.1723 -5.0585,0.703 -9.4544,2.4492 -12.6808,6.2913 -3.259,3.8851 -4.208,8.4019 -3.3534,13.8293 z m 32.563,-0.1488 v 0 c 1.1041,-7.5466 -1.4562,-13.0212 -7.3565,-17.2091 5.4054,0.6202 20.7278,9.3129 23.1163,13.1941 -5.2223,1.3301 -10.3825,2.645 -15.7598,4.015 z M 82.1007,154.0672 v 0 c -5.9947,4.2384 -8.5343,9.7679 -7.4055,17.2511 -5.3856,-1.3776 -10.5664,-2.7 -15.8783,-4.0575 3.4098,-4.356 17.5669,-12.3307 23.2838,-13.1936 z m 62.1159,43.6981 v 0 c -0.1806,-0.008 -0.3563,-0.0159 -0.5363,-0.0241 -1.3167,-3.1944 -2.6496,-6.385 -3.9252,-9.5907 -0.2537,-0.6361 -0.4093,-1.3618 -0.3846,-2.037 0.0654,-1.7263 0.2046,-3.4651 2.2492,-4.2659 1.8973,-0.7415 3.782,-0.6947 5.3975,0.4864 1.5333,1.1268 1.7991,2.9594 1.2881,4.5366 -1.198,3.6774 -2.7071,7.2683 -4.0887,10.8947 z m -5.6557,-16.3216 v 0 c -1.3295,2.6759 -1.5092,5.0975 -1.0511,7.6481 0.1392,0.7773 -0.3515,1.7703 -0.8181,2.5118 -1.4595,2.3114 -4.0238,2.924 -6.4811,3.8186 -0.4011,-5.1803 3.3284,-11.5492 8.3503,-13.9785 z m 10.6608,0.0119 v 0 c 5.8309,2.6407 9.1352,10.5795 8.2352,13.9708 -1.3371,-0.5343 -2.764,-0.9028 -3.9625,-1.6251 -1.7623,-1.0675 -3.492,-2.5078 -3.21,-4.6978 0.3314,-2.558 0.2948,-4.972 -1.0627,-7.6479 z M 89.0935,171.432 v 0 c -2.1997,0.0317 -3.7746,-1.1962 -4.3305,-3.1238 -0.781,-2.6994 0.6174,-5.8357 3.2389,-7.2717 1.9825,-1.0868 3.9543,-1.0516 5.2214,0.1888 -5.0746,1.9304 -5.639,5.6551 -4.1298,10.2067 z m 109.5874,0.008 v 0 c 1.6069,-4.619 0.8784,-8.3239 -4.2452,-10.3133 1.9386,-1.2557 4.0728,-1.0709 6.0443,0.3453 2.306,1.66 3.3245,4.6151 2.4534,7.1311 -0.6009,1.7345 -2.1384,2.8488 -4.2525,2.8369 z m -6.8499,-13.6805 v 0 c -0.544,-0.8553 -1.0469,-1.6441 -1.7499,-2.7545 1.942,-0.5065 3.6434,-0.9462 5.398,-1.4051 0.417,3.1156 0.417,3.1156 -3.6481,4.1596 z M 92.4012,153.529 v 0 c 1.7995,0.5414 3.4603,1.044 5.292,1.5931 -0.765,1.1302 -1.2639,1.8726 -1.7464,2.5824 -4.1788,-0.8788 -4.1788,-0.8788 -3.5456,-4.1755 z m 110.0622,1.1577 v 0 c -1.8978,2.6966 -2.3967,3.0419 -4.2159,2.0412 -0.7039,-0.3886 -0.8181,-1.7623 -1.2028,-2.6884 0.1758,-0.157 0.3515,-0.3143 0.5239,-0.4714 1.5539,0.3578 3.1073,0.7147 4.8948,1.1186 z M 90.1891,153.5565 v 0 c 0.2089,0.2081 0.4169,0.4162 0.6259,0.6202 -0.442,0.887 -0.6543,2.2488 -1.37,2.5705 -2.1716,0.9771 -2.2487,0.8201 -4.0159,-2.0639 1.656,-0.3886 3.206,-0.7574 4.76,-1.1268 z m -6.1008,1.7036 v 0 c 1.3615,2.4719 1.3244,2.782 -0.2213,3.708 -1.656,0.9933 -1.8443,0.9423 -3.3897,-1.0672 1.19,-0.8711 2.3802,-1.7422 3.611,-2.6408 z m 123.3474,2.7233 v 0 c -2.073,2.0171 -2.0571,1.9973 -3.9419,0.7415 -1.6602,-1.1066 -0.2046,-2.1191 -0.0331,-3.6419 1.4768,1.0757 2.6662,1.9468 3.975,2.9004 z m -105.8009,0.5176 v 0 c -1.9831,2.1197 -2.482,2.1115 -4.216,-0.0938 1.7669,-2.6331 2.5725,-2.6139 4.216,0.0938 z m 84.2386,-0.184 v 0 c 0.9521,-0.7021 1.7577,-1.7305 2.662,-1.8173 0.6092,-0.055 1.3535,1.217 2.0282,1.8842 -2.2941,2.1892 -2.2941,2.1892 -4.6902,-0.0669 z m -104.419,2.547 v 0 c -0.5148,0.7338 -0.7931,1.4714 -1.3411,1.8133 -0.5156,0.3217 -1.3087,0.2313 -1.9834,0.3217 -0.0612,-0.5301 -0.3149,-1.1344 -0.1349,-1.578 0.2823,-0.6948 0.8592,-1.2833 1.3575,-1.9781 0.7526,0.5066 1.3295,0.8989 2.1019,1.4211 z m 127.0278,-1.4485 v 0 c 0.548,0.8209 0.9981,1.472 1.4273,2.135 0.5561,0.8558 0.2744,1.4125 -0.7195,1.6209 -2.0403,0.4277 -1.8646,-1.4364 -2.8749,-2.2882 0.7972,-0.5414 1.374,-0.9337 2.1671,-1.4677 z m -25.2181,3.1515 v 0 c 0.5768,-1.0083 1.1123,-1.9386 1.6849,-2.9392 2.3922,2.2719 2.3922,2.2719 0.4252,4.1403 -0.6299,-0.3612 -1.2796,-0.73 -2.1101,-1.2011 z m -80.4266,-3.022 v 0 c 0.6217,1.1302 1.1365,2.0721 1.6801,3.0694 -0.8869,0.4708 -1.5457,0.82 -2.179,1.1571 -1.7297,-1.8718 -1.7297,-1.8718 0.4989,-4.2265 z m 82.5733,5.1568 v 0 c -0.5273,1.2087 -0.9034,2.1977 -1.4312,3.1079 -0.0573,0.0986 -1.3941,-0.2157 -1.4148,-0.4119 -0.1063,-0.9966 0.0207,-2.0205 0.0737,-3.1391 1.0185,0.1605 1.656,0.2625 2.7723,0.4431 z m -80.2179,-0.4431 v 0 c 0,1.2396 0.0688,2.268 -0.0738,3.2653 -0.0246,0.1561 -1.4105,0.3761 -1.4677,0.2548 -0.4584,-0.9462 -0.7484,-1.9704 -1.1288,-3.0929 0.9853,-0.1565 1.6234,-0.2591 2.6703,-0.4272 z m 105.7229,0.235 v 0 c 0.106,1.1067 1.0633,2.2487 -0.2047,3.159 -0.5927,0.428 -1.313,0.1771 -1.5582,-0.7841 -0.3308,-1.3074 -0.4453,-2.3474 1.7629,-2.3749 z m -132.9001,3.4498 v 0 c -0.286,-0.008 -0.5729,-0.0159 -0.8589,-0.0235 -0.2086,-0.5182 -0.6463,-1.0673 -0.5684,-1.5421 0.1061,-0.6596 0.601,-1.2597 0.9281,-1.8842 0.4501,0.4238 1.264,0.8399 1.2722,1.268 0.0076,0.7217 -0.4907,1.4521 -0.773,2.1818 z m 132.8794,1.3734 v 0 c 0.3356,0.6236 0.6256,1.1653 1.0309,1.9227 -0.9408,0.2398 -1.8283,0.4672 -2.8221,0.7189 -0.0896,-1.5115 -0.106,-2.6609 1.7912,-2.6416 z m -132.1676,2.7 v 0 c -1.08,-0.3025 -1.9469,-0.5417 -2.8752,-0.8008 0.4541,-0.8 0.7809,-1.3774 1.08,-1.9069 1.8765,0.0196 1.815,1.173 1.7952,2.7077 z m 106.3808,-0.9973 v 0 c -0.2653,0.2243 -0.5312,0.4482 -0.7974,0.6713 -0.5842,-0.5766 -1.1653,-1.1534 -1.7504,-1.7303 0.3722,-0.1882 0.953,-0.6202 1.08,-0.5182 0.5602,0.4437 0.9896,1.0364 1.4678,1.5772 z m -79.8789,-1.4711 v 0 c 0.0448,1.5857 -1.055,1.6718 -2.1424,1.8799 -0.0944,-1.9267 0.0935,-2.0996 2.1424,-1.8799" /><g
           id="g18"><g
             clip-path="url(#clipPath24)"
             id="g20"><path
               id="path44"
               style="fill:url(#linearGradient42);stroke:none"
               d="m 143.9464,207.5213 c -3.1246,-0.0125 -5.3407,1.9344 -5.3733,4.7248 -0.0329,2.8295 2.1591,4.9093 5.1894,4.9209 3.2181,0.0116 5.4592,-1.9661 5.4592,-4.8308 0,-2.8219 -2.1674,-4.7999 -5.2753,-4.8149" /></g></g></g><g
         id="g46"><path
           id="path48"
           style="fill:#367e34;fill-opacity:1;fill-rule:nonzero;stroke:none"
           d="m 60.6838,119.2861 v 15.0679 c 0,0.8898 -0.1647,1.6685 -0.4935,2.3363 -0.3285,0.6676 -0.9907,1.0854 -1.986,1.2555 h 9.5364 c 1.1225,0.0212 2.1713,-0.0318 3.1464,-0.1593 0.9751,-0.1268 1.8332,-0.381 2.5753,-0.762 0.7415,-0.3818 1.33,-0.9173 1.7643,-1.6058 0.434,-0.6886 0.6622,-1.5733 0.6828,-2.6544 -0.0206,-0.8691 -0.1853,-1.6106 -0.4921,-2.2246 -0.3078,-0.6154 -0.716,-1.1186 -1.2237,-1.5106 -0.5088,-0.392 -1.0916,-0.7044 -1.7484,-0.9371 -0.6573,-0.2339 -1.3464,-0.4034 -2.0667,-0.5089 0.8056,-0.0632 1.5789,-0.2177 2.321,-0.4614 0.7415,-0.2435 1.3983,-0.599 1.9704,-1.0647 0.5726,-0.4666 1.0281,-1.0647 1.3671,-1.7961 0.339,-0.731 0.5196,-1.6055 0.5403,-2.6229 0.0207,-1.059 -0.1695,-1.9598 -0.572,-2.7019 -0.4031,-0.7416 -0.9372,-1.3507 -1.605,-1.8275 -0.6679,-0.4771 -1.4307,-0.832 -2.2893,-1.0647 -0.858,-0.2339 -1.7532,-0.3495 -2.6855,-0.3495 H 58.2043 c 0.9953,0.1695 1.6575,0.5879 1.986,1.2557 0.3288,0.667 0.4935,1.4457 0.4935,2.336 z m 3.6553,11.126 v 0 c 0,-1.017 0.2749,-1.7484 0.8263,-2.1934 0.5513,-0.4453 1.2078,-0.667 1.9709,-0.667 0.5726,0 1.1707,0.1267 1.7966,0.381 0.6242,0.2542 1.192,0.6091 1.7008,1.0647 0.5077,0.4555 0.9156,1.0116 1.2232,1.669 0.3067,0.6568 0.4396,1.3873 0.3974,2.1934 -0.0213,0.6356 -0.1647,1.2501 -0.4292,1.8437 -0.2653,0.5933 -0.6409,1.1177 -1.1282,1.5738 -0.4878,0.455 -1.0922,0.8104 -1.8116,1.0647 -0.7217,0.2543 -1.5477,0.3702 -2.4803,0.3495 -0.5933,-0.0213 -1.086,-0.2384 -1.4774,-0.6511 -0.3929,-0.4136 -0.5885,-1.1084 -0.5885,-2.0826 z m 2.4795,-14.4958 v 0 c 0.8691,-0.0207 1.669,0.106 2.4,0.3818 0.7314,0.275 1.3723,0.6676 1.9228,1.1764 0.5513,0.5086 0.9856,1.1279 1.3039,1.8593 0.3178,0.731 0.4762,1.5208 0.4762,2.3683 0,0.8685 -0.1743,1.6478 -0.5238,2.3363 -0.3501,0.6886 -0.7999,1.2714 -1.3513,1.7484 -0.5513,0.4768 -1.1605,0.8476 -1.8278,1.1129 -0.6675,0.2645 -1.3195,0.3969 -1.955,0.3969 -0.8056,0 -1.4939,-0.2274 -2.0667,-0.6837 -0.5718,-0.4553 -0.8578,-1.181 -0.8578,-2.1768 v -5.7537 c 0,-0.4879 0.0689,-0.9063 0.2066,-1.2555 0.1378,-0.3501 0.3226,-0.6361 0.5562,-0.8586 0.233,-0.2228 0.4983,-0.3875 0.7945,-0.493 0.2963,-0.106 0.6044,-0.159 0.9222,-0.159" /><path
           id="path50"
           style="fill:#367e34;fill-opacity:1;fill-rule:nonzero;stroke:none"
           d="m 77.1817,115.6944 c 0.847,0.2962 1.425,0.7676 1.7326,1.4142 0.3067,0.6463 0.4609,1.3719 0.4609,2.1775 v 15.2263 c 0,0.4026 -0.0159,0.7898 -0.0482,1.1605 -0.0318,0.3708 -0.106,0.7155 -0.2225,1.033 -0.1165,0.3186 -0.2965,0.5936 -0.5403,0.8271 -0.2441,0.233 -0.5777,0.423 -1.0015,0.5721 l 5.15,2.2884 v -11.4438 c 0.4453,0.3597 0.9428,0.7257 1.4941,1.0973 0.5514,0.3699 1.1279,0.7036 1.7323,1.0007 0.6038,0.2967 1.2186,0.5402 1.8436,0.731 0.6251,0.1908 1.2348,0.2653 1.8281,0.2225 0.466,-0.0212 0.9167,-0.1165 1.3507,-0.286 0.4343,-0.1701 0.8215,-0.4127 1.1605,-0.731 0.3393,-0.3178 0.6095,-0.7045 0.8104,-1.1605 0.2013,-0.4556 0.3028,-0.9902 0.3028,-1.605 v -8.9326 c 0,-0.8056 0.1474,-1.5312 0.4445,-2.1775 0.2962,-0.6466 0.8688,-1.118 1.7166,-1.4142 h -7.7247 c 0.8691,0.2962 1.4514,0.7676 1.7484,1.4142 0.2963,0.6463 0.4454,1.3719 0.4454,2.1775 v 8.519 c 0,1.0814 -0.207,1.8442 -0.6203,2.2893 -0.413,0.4453 -0.9374,0.6672 -1.5735,0.6672 -0.7208,0 -1.5256,-0.2123 -2.4159,-0.6355 -0.8898,-0.4243 -1.7374,-0.9329 -2.543,-1.5256 v -9.3144 c 0,-0.8056 0.1536,-1.5312 0.4609,-2.1775 0.3067,-0.6466 0.885,-1.118 1.7325,-1.4142 z" /><path
           id="path52"
           style="fill:#367e34;fill-opacity:1;fill-rule:nonzero;stroke:none"
           d="m 95.3328,129.3633 5.1815,2.2887 v -12.1433 c 0,-1.0812 0.2069,-1.844 0.6196,-2.2884 0.4136,-0.4454 0.938,-0.6679 1.5741,-0.6679 0.72,0 1.5202,0.2115 2.4001,0.6353 0.8787,0.4237 1.7215,0.9326 2.5271,1.5264 v 7.0251 c 0,0.4238 -0.0159,0.8215 -0.0476,1.1923 -0.0315,0.3707 -0.1066,0.7151 -0.2226,1.0329 -0.1165,0.3178 -0.297,0.5933 -0.5402,0.8269 -0.2438,0.233 -0.5783,0.4232 -1.0012,0.572 l 5.1808,2.2887 v -12.3659 c 0,-0.8056 0.1061,-1.4995 0.3184,-2.0826 0.2109,-0.5831 0.7092,-1.0859 1.4933,-1.5091 h -2.4795 c -0.8895,0 -1.552,0.2273 -1.986,0.6828 -0.4348,0.4556 -0.6735,1.1288 -0.7154,2.0186 -0.4451,-0.339 -0.9434,-0.6996 -1.4942,-1.0806 -0.551,-0.381 -1.1287,-0.7262 -1.7322,-1.0329 -0.6038,-0.3073 -1.2138,-0.5562 -1.8278,-0.7472 -0.6154,-0.1908 -1.2299,-0.2645 -1.8439,-0.2226 -0.4666,0.0216 -0.9119,0.1165 -1.3349,0.2861 -0.4246,0.1695 -0.8064,0.4135 -1.1446,0.7313 -0.3393,0.3175 -0.6094,0.7098 -0.8104,1.1761 -0.2021,0.466 -0.3028,1.0063 -0.3028,1.6208 v 6.6124 c 0,0.4238 -0.0158,0.8215 -0.0473,1.1923 -0.0317,0.3707 -0.1063,0.7151 -0.222,1.0329 -0.1173,0.3178 -0.2976,0.5933 -0.5411,0.8269 -0.2438,0.233 -0.5774,0.4232 -1.0012,0.572" /><path
           id="path54"
           style="fill:#367e34;fill-opacity:1;fill-rule:nonzero;stroke:none"
           d="m 115.7091,119.2861 v 6.4531 c 0,0.4238 -0.0159,0.8215 -0.0476,1.1923 -0.0318,0.3707 -0.1069,0.7151 -0.2225,1.0329 -0.1165,0.3178 -0.2971,0.5933 -0.5409,0.8269 -0.2435,0.233 -0.5768,0.4232 -1.0006,0.572 l 5.1497,2.2887 v -2.4163 c 0.4445,0.3385 0.9317,0.6781 1.4618,1.0174 0.5292,0.339 1.0758,0.6409 1.6373,0.906 0.5615,0.2647 1.1336,0.477 1.7167,0.636 0.5822,0.1588 1.1596,0.2268 1.7325,0.2061 0.4025,-0.0212 0.7945,-0.0949 1.1755,-0.2225 0.3819,-0.1267 0.7314,-0.3129 1.0497,-0.5561 0.3178,-0.2438 0.5879,-0.5457 0.8104,-0.9063 0.2225,-0.3603 0.3756,-0.7738 0.4609,-1.2396 0.4454,0.339 0.938,0.6883 1.4783,1.0494 0.5403,0.3597 1.1075,0.6829 1.7008,0.9697 0.5927,0.2861 1.1922,0.5188 1.7957,0.6993 0.6044,0.1792 1.2028,0.2489 1.7961,0.2061 0.4657,-0.0212 0.9164,-0.1165 1.3512,-0.286 0.4343,-0.1701 0.8153,-0.4127 1.1441,-0.731 0.3288,-0.3178 0.5933,-0.7045 0.7951,-1.1605 0.2013,-0.4556 0.3019,-0.9902 0.3019,-1.605 v -8.9326 c 0,-0.8056 0.1483,-1.5312 0.4445,-2.1775 0.2965,-0.6466 0.8793,-1.118 1.749,-1.4142 h -7.7244 c 0.8469,0.2962 1.419,0.7676 1.716,1.4142 0.2963,0.6463 0.4451,1.3719 0.4451,2.1775 v 8.519 c 0,1.0814 -0.2061,1.8442 -0.6202,2.2893 -0.4128,0.4453 -0.9372,0.6672 -1.5733,0.6672 -0.6996,0 -1.4672,-0.1964 -2.3045,-0.5879 -0.8374,-0.3928 -1.6484,-0.8643 -2.4319,-1.4147 0.0207,-0.1061 0.0318,-0.1965 0.0318,-0.2702 0,-0.0745 0,-0.1641 0,-0.2701 v -8.9326 c 0,-0.8056 0.1479,-1.5312 0.445,-2.1775 0.2971,-0.6466 0.8691,-1.118 1.7167,-1.4142 h -7.6927 c 0.8476,0.2962 1.4196,0.7676 1.7164,1.4142 0.2965,0.6463 0.4453,1.3719 0.4453,2.1775 v 8.519 c 0,1.0814 -0.2066,1.8442 -0.6202,2.2893 -0.4136,0.4453 -0.938,0.6672 -1.5732,0.6672 -0.6789,0 -1.4205,-0.1805 -2.2252,-0.5402 -0.8056,-0.3606 -1.59,-0.8057 -2.3522,-1.3349 v -9.6004 c 0,-0.8056 0.1531,-1.5312 0.4603,-2.1775 0.3067,-0.6466 0.885,-1.118 1.7326,-1.4142 h -7.7244 c 0.8475,0.2962 1.4249,0.7676 1.7325,1.4142 0.3064,0.6463 0.4609,1.3719 0.4609,2.1775" /><path
           id="path56"
           style="fill:#367e34;fill-opacity:1;fill-rule:nonzero;stroke:none"
           d="m 141.7439,115.6944 c 0.847,0.2962 1.425,0.7676 1.7325,1.4142 0.3067,0.6463 0.4604,1.3719 0.4604,2.1775 v 6.4531 c 0,0.4238 -0.0159,0.8215 -0.0476,1.1923 -0.0318,0.3707 -0.1061,0.7151 -0.2226,1.0329 -0.1165,0.3178 -0.297,0.5933 -0.5402,0.8269 -0.2441,0.233 -0.5775,0.4232 -1.0015,0.572 l 5.15,2.2887 v -12.3659 c 0,-0.8056 0.1536,-1.5312 0.4609,-2.1775 0.3067,-0.6466 0.8844,-1.118 1.7319,-1.4142 z m 1.8434,18.5006 v 0 c 0,0.551 0.1958,1.0219 0.5884,1.4147 0.3915,0.3921 0.8629,0.5877 1.4143,0.5877 0.5504,0 1.0275,-0.1956 1.4306,-0.5877 0.4025,-0.3928 0.6038,-0.8637 0.6038,-1.4147 0,-0.5514 -0.2013,-1.0228 -0.6038,-1.4151 -0.4031,-0.392 -0.8802,-0.5876 -1.4306,-0.5876 -0.5514,0 -1.0228,0.1956 -1.4143,0.5876 -0.3926,0.3923 -0.5884,0.8637 -0.5884,1.4151" /><path
           id="path58"
           style="fill:#367e34;fill-opacity:1;fill-rule:nonzero;stroke:none"
           d="m 160.1802,137.9458 h 8.615 c -0.4666,-0.0848 -0.8263,-0.2384 -1.0806,-0.4604 -0.2542,-0.2234 -0.4246,-0.4935 -0.5093,-0.811 -0.0839,-0.3177 -0.0998,-0.6726 -0.0477,-1.0647 0.0533,-0.3928 0.154,-0.8112 0.3028,-1.2557 l 4.7364,-15.0679 c 0.148,-0.4453 0.339,-0.9014 0.572,-1.3665 l 5.1815,16.4344 c 0.1482,0.4445 0.2488,0.8629 0.3019,1.2557 0.053,0.3921 0.0371,0.747 -0.0477,1.0647 -0.0853,0.3175 -0.2542,0.5876 -0.5085,0.811 -0.2543,0.222 -0.6148,0.3756 -1.0811,0.4604 h 5.3407 c -1.0599,-0.1701 -1.8544,-0.5879 -2.3839,-1.2555 -0.5298,-0.6678 -0.9434,-1.4465 -1.2396,-2.3363 l -4.7373,-15.0679 c -0.1267,-0.4246 -0.2225,-0.8158 -0.2857,-1.1755 -0.0635,-0.3611 -0.0635,-0.6996 0,-1.0179 0.2968,-0.3606 0.6463,-0.6568 1.0494,-0.8898 0.4017,-0.2336 0.8898,-0.4031 1.4618,-0.5085 h -6.1356 l -5.8802,18.6596 c -0.297,0.8898 -0.7098,1.6685 -1.2398,2.3363 -0.5298,0.6676 -1.3244,1.0854 -2.3845,1.2555" /><path
           id="path60"
           style="fill:#367e34;fill-opacity:1;fill-rule:nonzero;stroke:none"
           d="m 181.2569,130.6664 c 0.5505,0.4238 1.1809,0.752 1.891,0.9856 0.7103,0.2327 1.4995,0.3492 2.3683,0.3492 1.1447,0 2.1453,-0.2012 3.0039,-0.6035 0.8589,-0.4033 1.5783,-0.9436 2.162,-1.6217 0.5822,-0.678 1.017,-1.4624 1.3031,-2.3519 0.286,-0.8903 0.4294,-1.8116 0.4294,-2.7663 H 180.303 c 0.233,-0.8688 0.5879,-1.7269 1.0647,-2.5744 0.4768,-0.8476 1.0497,-1.605 1.7167,-2.2728 0.6678,-0.6679 1.4196,-1.2082 2.2569,-1.6209 0.8374,-0.4136 1.7326,-0.6313 2.687,-0.652 0.7826,-0.0212 1.525,0.1222 2.2243,0.4295 0.6996,0.3067 1.2717,0.7574 1.7167,1.3507 -0.5726,-1.1441 -1.3935,-2.0976 -2.4636,-2.8613 -1.0704,-0.7622 -2.4004,-1.1441 -3.9895,-1.1441 -1.3569,0 -2.5271,0.2917 -3.5124,0.8745 -0.9856,0.5825 -1.7855,1.3295 -2.4004,2.2405 -0.6145,0.9116 -1.0383,1.9392 -1.2713,3.0838 -0.2336,1.1441 -0.2812,2.2831 -0.1434,3.4175 0.1377,1.1336 0.4617,2.2087 0.9703,3.2264 0.5079,1.0173 1.2075,1.8538 2.0979,2.5112 z m -1.0174,-5.7535 v 0 h 8.1057 c 0.0213,0.9102 -0.0904,1.7532 -0.3336,2.5271 -0.2438,0.7733 -0.5775,1.4409 -1.0012,2.0027 -0.4238,0.5615 -0.9165,1.0012 -1.4783,1.3189 -0.5615,0.3184 -1.1495,0.4768 -1.764,0.4768 -0.4453,0 -0.896,-0.0901 -1.3507,-0.2701 -0.4564,-0.1797 -0.896,-0.4609 -1.3193,-0.8422 -0.5938,-0.5519 -0.9496,-1.2926 -1.0652,-2.2252 -0.1165,-0.9329 -0.0476,-1.9287 0.2066,-2.988" /><path
           id="path62"
           style="fill:#367e34;fill-opacity:1;fill-rule:nonzero;stroke:none"
           d="m 193.8762,123.673 c 0,1.0381 0.1536,2.0552 0.4609,3.0515 0.3067,0.9958 0.7733,1.8862 1.3992,2.6706 0.6241,0.7835 1.398,1.4139 2.3201,1.8915 0.9221,0.4762 1.9973,0.7146 3.2267,0.7146 1.2713,0 2.3519,-0.2542 3.2423,-0.7628 0.8897,-0.5085 1.6097,-1.1755 2.1611,-2.0027 v 5.2767 c 0,0.4026 -0.0159,0.7898 -0.0476,1.1605 -0.0318,0.3708 -0.106,0.7155 -0.222,1.033 -0.1171,0.3186 -0.2976,0.5936 -0.5403,0.8271 -0.2446,0.233 -0.578,0.423 -1.0017,0.5721 l 5.1814,2.2884 v -21.1074 c 0,-0.8056 0.1055,-1.4995 0.3178,-2.0826 0.2114,-0.5831 0.7103,-1.0859 1.4938,-1.5091 h -2.4794 c -0.8476,0 -1.4828,0.206 -1.9069,0.6196 -0.4238,0.4133 -0.6786,1.0114 -0.7634,1.7966 -0.5507,-0.8271 -1.2716,-1.5004 -2.1611,-2.0194 -0.8904,-0.5187 -1.982,-0.7787 -3.274,-0.7787 -1.2294,0 -2.3046,0.2384 -3.2267,0.7155 -0.9221,0.4768 -1.696,1.1072 -2.3201,1.8916 -0.6259,0.7835 -1.0925,1.6795 -1.3992,2.6864 -0.3073,1.006 -0.4609,2.0287 -0.4609,3.067 z m 8.8058,-7.5659 v 0 c 0.7415,0 1.3666,0.1482 1.8751,0.4453 0.5085,0.2962 0.9213,0.6939 1.2396,1.1923 0.3178,0.4974 0.5459,1.0647 0.6837,1.7007 0.1378,0.6353 0.2061,1.2816 0.2061,1.9384 v 5.309 c 0,0.572 -0.0794,1.1282 -0.2378,1.6685 -0.1591,0.5411 -0.3977,1.0179 -0.7152,1.4306 -0.3184,0.4136 -0.7107,0.7526 -1.1764,1.0171 -0.4666,0.2653 -1.0171,0.4082 -1.6532,0.4294 -0.6783,0.042 -1.3507,-0.1006 -2.0185,-0.4294 -0.667,-0.3286 -1.2668,-0.8158 -1.796,-1.4616 -0.5298,-0.6471 -0.9647,-1.4465 -1.3031,-2.4001 -0.3391,-0.9538 -0.5091,-2.0454 -0.5091,-3.2743 0,-1.2078 0.159,-2.2836 0.4773,-3.2264 0.3178,-0.9433 0.7305,-1.7325 1.2399,-2.3686 0.5085,-0.6352 1.0854,-1.1231 1.7325,-1.4624 0.6458,-0.339 1.2974,-0.5085 1.9551,-0.5085" /><path
           id="path64"
           style="fill:#367e34;fill-opacity:1;fill-rule:nonzero;stroke:none"
           d="m 219.6244,127.5517 c 0.9536,0 1.8439,-0.1386 2.6702,-0.4142 0.8263,-0.2758 1.6002,-0.6783 2.3205,-1.2075 v 1.8751 c -0.0423,1.0814 -0.2384,1.876 -0.588,2.3845 -0.3495,0.5085 -0.7897,0.8476 -1.3189,1.0171 -0.3606,0.1054 -0.7526,0.1117 -1.1764,0.0159 -0.4238,-0.095 -0.8475,-0.2702 -1.2713,-0.5245 -0.4247,-0.2542 -0.832,-0.5774 -1.224,-0.9694 -0.3929,-0.3923 -0.747,-0.832 -1.0647,-1.3193 l -2.8296,1.8437 c 0.5514,0.5924 1.2507,1.0383 2.0982,1.3348 0.847,0.2968 1.7485,0.4451 2.7023,0.4451 0.9536,0 1.9069,-0.1426 2.8604,-0.4286 0.9539,-0.286 1.8173,-0.7161 2.5912,-1.2881 0.7733,-0.572 1.3983,-1.2761 1.8751,-2.1135 0.4771,-0.8374 0.7155,-1.7957 0.7155,-2.8772 v -6.0395 c 0,-0.8056 0.106,-1.4995 0.3177,-2.0826 0.2121,-0.5831 0.7098,-1.0859 1.4948,-1.5091 l -2.4795,0.0317 c -0.7637,0 -1.357,0.1142 -1.7807,0.3424 -0.4241,0.2282 -0.6991,0.6548 -0.8263,1.2785 l -0.0958,-0.0318 c -0.3178,-0.381 -0.6781,-0.6996 -1.0806,-0.9538 -0.4025,-0.2543 -0.8263,-0.4561 -1.2716,-0.6035 -0.4451,-0.1483 -0.9063,-0.2495 -1.3831,-0.3019 -0.4762,-0.053 -0.9371,-0.08 -1.3824,-0.08 -1.4837,0.0213 -2.7233,0.3391 -3.7191,0.9539 -0.9966,0.6145 -1.7382,1.372 -2.2252,2.2725 -0.4881,0.9009 -0.7313,1.876 -0.7313,2.9248 0,1.0488 0.2543,2.0186 0.7628,2.9089 0.5088,0.8895 1.266,1.6311 2.2728,2.2252 1.0063,0.5925 2.2618,0.8904 3.767,0.8904 z m 1.1446,-11.7621 v 0 c 1.1866,0.0204 2.1237,0.4292 2.8137,1.2237 0.6877,0.7946 1.0324,1.891 1.0324,3.2899 v 2.7337 c 0,0.6361 -0.1165,1.2082 -0.3496,1.7167 -0.2335,0.5088 -0.5354,0.938 -0.9062,1.2875 -0.3708,0.3501 -0.7897,0.6202 -1.2555,0.811 -0.4665,0.1902 -0.9428,0.2854 -1.4306,0.2854 -1.0386,0.0213 -1.9069,-0.2488 -2.6065,-0.8098 -0.6993,-0.5624 -1.2189,-1.2617 -1.5573,-2.0985 -0.339,-0.8371 -0.5037,-1.7481 -0.4927,-2.7337 0.0102,-0.9854 0.1902,-1.9026 0.5403,-2.7496 0.3492,-0.8476 0.8785,-1.5526 1.5891,-2.1144 0.7104,-0.5615 1.5843,-0.8419 2.6229,-0.8419" /></g><g
         id="g66"><g
           id="g68"><g
             clip-path="url(#clipPath74)"
             id="g70"><path
               id="path94"
               style="fill:url(#linearGradient92);stroke:none"
               d="M 80.1235,103.5417 H 76.299 c -0.1015,0 -0.182,-0.0332 -0.2426,-0.0987 -0.0601,-0.0655 -0.0904,-0.1536 -0.0904,-0.2647 v -9.8725 c 0,-0.1007 0.0303,-0.184 0.0904,-0.2495 0.0606,-0.0655 0.1411,-0.0978 0.2426,-0.0978 h 0.756 c 0.0998,0 0.1831,0.0323 0.2495,0.0978 0.0646,0.0655 0.0978,0.1488 0.0978,0.2495 v 3.8103 h 2.7212 c 1.1393,0 2.0339,0.2721 2.6836,0.8167 0.65,0.5436 0.9751,1.3396 0.9751,2.3879 0,1.0488 -0.3251,1.8473 -0.9751,2.3967 -0.6497,0.549 -1.5443,0.8243 -2.6836,0.8243 z m -0.0757,-5.201 v 0 h -2.6455 v 3.9756 h 2.6455 c 0.7662,0 1.3383,-0.171 1.7159,-0.5134 0.3778,-0.3433 0.5672,-0.8374 0.5672,-1.4822 0,-1.3204 -0.7614,-1.98 -2.2831,-1.98" /></g></g><g
           id="g96"><g
             clip-path="url(#clipPath102)"
             id="g98"><path
               id="path122"
               style="fill:url(#linearGradient120);stroke:none"
               d="m 92.6864,97.4633 c 0.6857,0.1917 1.2192,0.5341 1.6024,1.0282 0.3833,0.494 0.5746,1.1242 0.5746,1.8895 0,1.0284 -0.3246,1.8119 -0.9751,2.3514 -0.6497,0.5391 -1.5492,0.8093 -2.6986,0.8093 h -3.689 c -0.1006,0 -0.1811,-0.0332 -0.2418,-0.0987 -0.0607,-0.0655 -0.0901,-0.1536 -0.0901,-0.2647 v -9.8725 c 0,-0.1007 0.0294,-0.184 0.0901,-0.2495 0.0607,-0.0655 0.1412,-0.0978 0.2418,-0.0978 h 0.7257 c 0.1006,0 0.1868,0.0323 0.2571,0.0978 0.0703,0.0655 0.1063,0.1488 0.1063,0.2495 v 3.9308 h 2.6909 l 2.2224,-3.8702 c 0.0703,-0.1309 0.1482,-0.2316 0.2338,-0.3024 0.0859,-0.0703 0.2047,-0.1055 0.3555,-0.1055 h 0.6656 c 0.0807,0 0.151,0.0304 0.2117,0.0902 0.0598,0.0606 0.0901,0.1309 0.0901,0.2123 0,0.0504 -0.015,0.1054 -0.0447,0.1661 z m -1.5574,1.0131 v 0 h -2.5392 v 3.8399 h 2.5392 c 1.5225,0 2.2831,-0.6401 2.2831,-1.92 0,-1.2798 -0.7606,-1.9199 -2.2831,-1.9199" /></g></g><g
           id="g124"><g
             clip-path="url(#clipPath130)"
             id="g126"><path
               id="path150"
               style="fill:url(#linearGradient148);stroke:none"
               d="m 103.2545,103.2086 c -0.0813,0.222 -0.2426,0.3331 -0.4844,0.3331 h -0.9678 c -0.2418,0 -0.4031,-0.1111 -0.4836,-0.3331 L 97.5696,93.4271 97.5393,93.261 c 0,-0.0814 0.0303,-0.1517 0.091,-0.2123 0.0601,-0.0598 0.1304,-0.0902 0.2109,-0.0902 h 0.7265 c 0.1709,0 0.2968,0.0853 0.3776,0.2571 l 0.8317,2.177 h 5.0037 l 0.847,-2.177 c 0.0201,-0.0606 0.0629,-0.1185 0.1284,-0.1737 0.0652,-0.0559 0.1488,-0.0834 0.2494,-0.0834 h 0.7104 c 0.0805,0 0.1536,0.0304 0.2191,0.0902 0.0655,0.0606 0.0987,0.1309 0.0987,0.2123 l -0.0304,0.1661 z m -3.0393,-6.5611 v 0 l 2.071,5.4275 2.0716,-5.4275 z" /></g></g><g
           id="g152"><g
             clip-path="url(#clipPath158)"
             id="g154"><path
               id="path178"
               style="fill:url(#linearGradient176);stroke:none"
               d="m 112.5363,98.4764 4.7171,4.5661 c 0.0505,0.0496 0.076,0.1159 0.076,0.1964 0,0.0808 -0.0303,0.1511 -0.091,0.2118 -0.0607,0.0598 -0.131,0.091 -0.2118,0.091 h -0.756 c -0.2321,0 -0.4286,-0.0814 -0.589,-0.2421 l -4.0978,-3.886 v 3.7647 c 0,0.1111 -0.0328,0.1992 -0.0978,0.2647 -0.066,0.0655 -0.1536,0.0987 -0.2644,0.0987 h -0.7112 c -0.1007,0 -0.1806,-0.0332 -0.2421,-0.0987 -0.0598,-0.0655 -0.0902,-0.1536 -0.0902,-0.2647 v -9.8725 c 0,-0.1007 0.0304,-0.184 0.0902,-0.2495 0.0615,-0.0655 0.1414,-0.0978 0.2421,-0.0978 h 0.7112 c 0.1006,0 0.1859,0.0323 0.2562,0.0978 0.0709,0.0655 0.106,0.1488 0.106,0.2495 v 4.1728 l 4.3844,-4.2783 c 0.091,-0.0703 0.1763,-0.1287 0.2571,-0.1743 0.0805,-0.0448 0.1916,-0.0675 0.3328,-0.0675 h 0.7863 c 0.0799,0 0.1508,0.0304 0.2115,0.0902 0.0601,0.0606 0.0904,0.1309 0.0904,0.2123 0,0.0799 -0.0249,0.1511 -0.0751,0.2117 z" /></g></g><g
           id="g180"><g
             clip-path="url(#clipPath186)"
             id="g182"><path
               id="path206"
               style="fill:url(#linearGradient204);stroke:none"
               d="m 126.2486,97.4633 c 0.6851,0.1917 1.2192,0.5341 1.6024,1.0282 0.383,0.494 0.5746,1.1242 0.5746,1.8895 0,1.0284 -0.3251,1.8119 -0.9751,2.3514 -0.6497,0.5391 -1.5497,0.8093 -2.6986,0.8093 h -3.689 c -0.1006,0 -0.1811,-0.0332 -0.2418,-0.0987 -0.0607,-0.0655 -0.091,-0.1536 -0.091,-0.2647 v -9.8725 c 0,-0.1007 0.0303,-0.184 0.091,-0.2495 0.0607,-0.0655 0.1412,-0.0978 0.2418,-0.0978 h 0.7257 c 0.1006,0 0.1868,0.0323 0.2571,0.0978 0.0703,0.0655 0.106,0.1488 0.106,0.2495 v 3.9308 h 2.6906 l 2.2224,-3.8702 c 0.0703,-0.1309 0.1488,-0.2316 0.2341,-0.3024 0.0862,-0.0703 0.2047,-0.1055 0.3558,-0.1055 h 0.665 c 0.0805,0 0.1516,0.0304 0.2115,0.0902 0.0606,0.0606 0.0909,0.1309 0.0909,0.2123 0,0.0504 -0.015,0.1054 -0.0453,0.1661 z m -1.5574,1.0131 v 0 h -2.5395 v 3.8399 h 2.5395 c 1.5222,0 2.2831,-0.6401 2.2831,-1.92 0,-1.2798 -0.7609,-1.9199 -2.2831,-1.9199" /></g></g><g
           id="g208"><g
             clip-path="url(#clipPath214)"
             id="g210"><path
               id="path234"
               style="fill:url(#linearGradient232);stroke:none"
               d="m 144.4116,103.5417 h -7.2567 c -0.1012,0 -0.184,-0.0332 -0.2495,-0.0987 -0.066,-0.0655 -0.0986,-0.1536 -0.0986,-0.2647 v -0.5899 c 0,-0.1007 0.0326,-0.184 0.0986,-0.2495 0.0655,-0.0655 0.1483,-0.0978 0.2495,-0.0978 h 2.918 v -8.9353 c 0,-0.1007 0.0323,-0.184 0.0978,-0.2495 0.0655,-0.0655 0.1488,-0.0978 0.2494,-0.0978 h 0.7257 c 0.1006,0 0.1859,0.0323 0.2571,0.0978 0.0703,0.0655 0.106,0.1488 0.106,0.2495 v 8.9353 h 2.9027 c 0.1006,0 0.184,0.0323 0.2494,0.0978 0.0655,0.0655 0.0987,0.1488 0.0987,0.2495 v 0.5899 c 0,0.1111 -0.0303,0.1992 -0.091,0.2647 -0.0607,0.0655 -0.1463,0.0987 -0.2571,0.0987" /></g></g><g
           id="g236"><g
             clip-path="url(#clipPath242)"
             id="g238"><path
               id="path262"
               style="fill:url(#linearGradient260);stroke:none"
               d="m 149.0831,103.5417 h -0.756 c -0.1012,0 -0.1811,-0.0332 -0.2424,-0.0987 -0.0601,-0.0655 -0.0904,-0.1488 -0.0904,-0.2494 v -9.8878 c 0,-0.1007 0.0303,-0.184 0.0904,-0.2495 0.0613,-0.0655 0.1412,-0.0978 0.2424,-0.0978 h 0.756 c 0.1,0 0.1834,0.0323 0.2494,0.0978 0.0649,0.0655 0.0981,0.1488 0.0981,0.2495 v 9.8878 c 0,0.1108 -0.0303,0.1964 -0.091,0.2571 -0.0601,0.0598 -0.1462,0.091 -0.2565,0.091" /></g></g><g
           id="g264"><g
             clip-path="url(#clipPath270)"
             id="g266"><path
               id="path290"
               style="fill:url(#linearGradient288);stroke:none"
               d="m 133.4503,103.5417 h -0.756 c -0.1006,0 -0.1814,-0.0332 -0.2421,-0.0987 -0.0606,-0.0655 -0.091,-0.1488 -0.091,-0.2494 v -9.8878 c 0,-0.1007 0.0304,-0.184 0.091,-0.2495 0.0607,-0.0655 0.1415,-0.0978 0.2421,-0.0978 h 0.756 c 0.1003,0 0.1831,0.0323 0.2494,0.0978 0.0655,0.0655 0.0978,0.1488 0.0978,0.2495 v 9.8878 c 0,0.1108 -0.0303,0.1964 -0.0904,0.2571 -0.0606,0.0598 -0.1465,0.091 -0.2568,0.091" /></g></g><g
           id="g292"><g
             clip-path="url(#clipPath298)"
             id="g294"><path
               id="path318"
               style="fill:url(#linearGradient316);stroke:none"
               d="m 155.9614,98.4764 4.7171,4.5661 c 0.0504,0.0496 0.076,0.1159 0.076,0.1964 0,0.0808 -0.0304,0.1511 -0.091,0.2118 -0.0607,0.0598 -0.131,0.091 -0.2118,0.091 h -0.756 c -0.2321,0 -0.4286,-0.0814 -0.589,-0.2421 l -4.0978,-3.886 v 3.7647 c 0,0.1111 -0.0329,0.1992 -0.0978,0.2647 -0.066,0.0655 -0.1536,0.0987 -0.2653,0.0987 h -0.7098 c -0.1012,0 -0.1811,-0.0332 -0.2426,-0.0987 -0.0599,-0.0655 -0.0902,-0.1536 -0.0902,-0.2647 v -9.8725 c 0,-0.1007 0.0303,-0.184 0.0902,-0.2495 0.0615,-0.0655 0.1414,-0.0978 0.2426,-0.0978 h 0.7098 c 0.1015,0 0.1868,0.0323 0.2571,0.0978 0.0709,0.0655 0.106,0.1488 0.106,0.2495 v 4.1728 l 4.3844,-4.2783 c 0.091,-0.0703 0.1766,-0.1287 0.2571,-0.1743 0.0805,-0.0448 0.1907,-0.0675 0.3327,-0.0675 h 0.7864 c 0.0808,0 0.1508,0.0304 0.2114,0.0902 0.0601,0.0606 0.0905,0.1309 0.0905,0.2123 0,0.0799 -0.025,0.1511 -0.0751,0.2117 z" /></g></g><g
           id="g320"><g
             clip-path="url(#clipPath326)"
             id="g322"><path
               id="path346"
               style="fill:url(#linearGradient344);stroke:none"
               d="m 176.9153,103.5417 h -0.7256 c -0.1111,0 -0.1965,-0.0332 -0.2571,-0.0987 -0.0607,-0.0655 -0.091,-0.1536 -0.091,-0.2647 v -6.1685 c 0,-0.9771 -0.2288,-1.7104 -0.6877,-2.1997 -0.4589,-0.4884 -1.1061,-0.733 -1.9429,-0.733 -0.847,0 -1.4987,0.2418 -1.9576,0.7256 -0.4592,0.4845 -0.688,1.2198 -0.688,2.2071 v 6.1685 c 0,0.1111 -0.0323,0.1992 -0.0983,0.2647 -0.0655,0.0655 -0.1537,0.0987 -0.2639,0.0987 h -0.7257 c -0.1015,0 -0.182,-0.0332 -0.2426,-0.0987 -0.0601,-0.0655 -0.0905,-0.1536 -0.0905,-0.2647 v -6.1382 c 0,-1.4207 0.353,-2.482 1.0588,-3.1821 0.705,-0.7011 1.7076,-1.0503 3.0078,-1.0503 1.2997,0 2.3003,0.3492 3.0013,1.0503 0.7002,0.7001 1.0503,1.7614 1.0503,3.1821 v 6.1382 c 0,0.1111 -0.0323,0.1992 -0.0978,0.2647 -0.0663,0.0655 -0.1491,0.0987 -0.2495,0.0987" /></g></g><g
           id="g348"><g
             clip-path="url(#clipPath354)"
             id="g350"><path
               id="path374"
               style="fill:url(#linearGradient372);stroke:none"
               d="m 186.8477,97.4633 c 0.6857,0.1917 1.2191,0.5341 1.6029,1.0282 0.3824,0.494 0.5741,1.1242 0.5741,1.8895 0,1.0284 -0.3252,1.8119 -0.9752,2.3514 -0.6499,0.5391 -1.5491,0.8093 -2.6985,0.8093 h -3.689 c -0.1007,0 -0.1812,-0.0332 -0.2418,-0.0987 -0.0607,-0.0655 -0.0905,-0.1536 -0.0905,-0.2647 v -9.8725 c 0,-0.1007 0.0298,-0.184 0.0905,-0.2495 0.0606,-0.0655 0.1411,-0.0978 0.2418,-0.0978 h 0.7256 c 0.1007,0 0.1868,0.0323 0.2571,0.0978 0.0703,0.0655 0.106,0.1488 0.106,0.2495 v 3.9308 h 2.6913 l 2.2217,-3.8702 c 0.0709,-0.1309 0.1494,-0.2316 0.235,-0.3024 0.0854,-0.0703 0.2039,-0.1055 0.3549,-0.1055 h 0.6656 c 0.0799,0 0.1508,0.0304 0.2115,0.0902 0.0606,0.0606 0.0904,0.1309 0.0904,0.2123 0,0.0504 -0.0145,0.1054 -0.0448,0.1661 z m -1.5574,1.0131 v 0 h -2.5396 v 3.8399 h 2.5396 c 1.5222,0 2.283,-0.6401 2.283,-1.92 0,-1.2798 -0.7608,-1.9199 -2.283,-1.9199" /></g></g><g
           id="g376"><g
             clip-path="url(#clipPath382)"
             id="g378"><path
               id="path402"
               style="fill:url(#linearGradient400);stroke:none"
               d="M 199.3354,103.5417 H 192.85 c -0.1012,0 -0.1845,-0.0332 -0.2494,-0.0987 -0.0661,-0.0655 -0.0987,-0.1488 -0.0987,-0.2494 v -0.5749 c 0,-0.1006 0.0326,-0.184 0.0987,-0.2494 0.0649,-0.0655 0.1482,-0.0978 0.2494,-0.0978 h 5.3966 V 96.859 c 0,-0.8572 -0.2086,-1.5375 -0.627,-2.0412 -0.4184,-0.5038 -1.0103,-0.756 -1.7759,-0.756 -0.6659,0 -1.2198,0.1564 -1.6637,0.4685 -0.4436,0.313 -0.6953,0.7968 -0.756,1.4514 -0.0303,0.2324 -0.1564,0.3481 -0.3775,0.3481 h -0.7711 c -0.091,0 -0.1661,-0.0332 -0.2267,-0.0987 -0.0607,-0.0655 -0.091,-0.1431 -0.091,-0.2341 0.0405,-1.0483 0.4209,-1.8423 1.1412,-2.3811 0.7208,-0.5389 1.6305,-0.8082 2.7289,-0.8082 0.796,0 1.4865,0.1661 2.0716,0.4981 0.5842,0.333 1.0301,0.8016 1.3376,1.4065 0.3079,0.6044 0.4618,1.3102 0.4618,2.1164 v 6.3496 c 0,0.1111 -0.0332,0.1992 -0.0986,0.2647 -0.0655,0.0655 -0.1537,0.0987 -0.2648,0.0987" /></g></g><g
           id="g404"><g
             clip-path="url(#clipPath410)"
             id="g406"><path
               id="path430"
               style="fill:url(#linearGradient428);stroke:none"
               d="m 212.0046,93.4271 -3.7489,9.7815 c -0.0807,0.222 -0.2426,0.3331 -0.4844,0.3331 h -0.9677 c -0.2418,0 -0.4031,-0.1111 -0.4836,-0.3331 l -3.7491,-9.7815 -0.0304,-0.1661 c 0,-0.0814 0.0304,-0.1517 0.091,-0.2123 0.0601,-0.0598 0.131,-0.0902 0.2118,-0.0902 h 0.7256 c 0.1715,0 0.2968,0.0853 0.3782,0.2571 l 0.8305,2.177 h 5.0052 l 0.8461,-2.177 c 0.0201,-0.0606 0.0629,-0.1185 0.1284,-0.1737 0.0652,-0.0559 0.1488,-0.0834 0.2495,-0.0834 h 0.7103 c 0.0814,0 0.1545,0.0304 0.2192,0.0902 0.0654,0.0606 0.0986,0.1309 0.0986,0.2123 z m -6.7882,3.2204 v 0 l 2.071,5.4275 2.0716,-5.4275 z" /></g></g></g></g></g></svg>