<svg width="230" height="34" viewBox="0 0 230 34" fill="none" xmlns="http://www.w3.org/2000/svg">
<path d="M3.91174 28.4952V8.40467C3.91174 7.21827 3.69214 6.18 3.25374 5.2896C2.81574 4.39947 1.9328 3.84241 0.605736 3.61561H13.3209C14.8176 3.58735 16.216 3.65801 17.5161 3.82801C18.8163 3.99708 19.9604 4.33601 20.9499 4.84401C21.9385 5.35307 22.7232 6.06708 23.3023 6.98508C23.8809 7.90321 24.1852 9.08282 24.2127 10.5243C24.1852 11.6831 23.9656 12.6717 23.5565 13.4904C23.1461 14.3109 22.6019 14.9819 21.9249 15.5045C21.2465 16.0272 20.4695 16.4438 19.5937 16.754C18.7173 17.0659 17.7985 17.2919 16.8381 17.4325C17.9123 17.5168 18.9433 17.7228 19.9328 18.0478C20.9215 18.3724 21.7972 18.8464 22.56 19.4673C23.3235 20.0895 23.9308 20.8869 24.3828 21.8621C24.8348 22.8368 25.0756 24.0028 25.1032 25.3593C25.1308 26.7713 24.8772 27.9724 24.3405 28.9619C23.8031 29.9507 23.0909 30.7628 22.2005 31.3985C21.31 32.0347 20.2929 32.5079 19.1481 32.8181C18.0041 33.13 16.8105 33.2841 15.5675 33.2841H0.605736C1.9328 33.0581 2.81574 32.5003 3.25374 31.6099C3.69214 30.7205 3.91174 29.6823 3.91174 28.4952ZM8.78547 13.6606C8.78547 15.0166 9.152 15.9917 9.8872 16.5851C10.6223 17.1788 11.4976 17.4744 12.5151 17.4744C13.2785 17.4744 14.076 17.3055 14.9105 16.9664C15.7428 16.6275 16.4999 16.1543 17.1783 15.5468C17.8552 14.9395 18.3991 14.198 18.8092 13.3215C19.2181 12.4458 19.3953 11.4717 19.3391 10.3969C19.3107 9.54948 19.1195 8.73014 18.7668 7.93867C18.4131 7.1476 17.9123 6.44842 17.2625 5.84028C16.6121 5.23362 15.8063 4.75975 14.8471 4.42069C13.8848 4.08162 12.7835 3.92708 11.54 3.95468C10.7489 3.98308 10.092 4.27254 9.57013 4.82281C9.04626 5.37427 8.78547 6.30069 8.78547 7.59962V13.6606ZM12.0915 32.9883C13.2503 33.0159 14.3168 32.8469 15.2915 32.4792C16.2667 32.1125 17.1212 31.5891 17.8552 30.9107C18.5903 30.2325 19.1693 29.4068 19.5937 28.4316C20.0175 27.4569 20.2287 26.4039 20.2287 25.2739C20.2287 24.1159 19.9963 23.0768 19.5303 22.1588C19.0635 21.2407 18.4637 20.4636 17.7285 19.8276C16.9935 19.1919 16.1812 18.6975 15.2915 18.3438C14.4015 17.9911 13.5321 17.8145 12.6848 17.8145C11.6107 17.8145 10.6929 18.1177 9.9292 18.7261C9.1668 19.3332 8.78547 20.3008 8.78547 21.6286V29.3001C8.78547 29.9507 8.87734 30.5085 9.06094 30.9741C9.24467 31.4409 9.49107 31.8223 9.80253 32.1189C10.1132 32.416 10.4669 32.6356 10.8619 32.7763C11.2569 32.9176 11.6677 32.9883 12.0915 32.9883Z" fill="#367E34"/>
<path d="M25.9089 33.2841C27.0383 32.8892 27.8089 32.2607 28.2191 31.3985C28.628 30.5368 28.8336 29.5693 28.8336 28.4952V8.19347C28.8336 7.65667 28.8124 7.14041 28.7693 6.64615C28.7269 6.15175 28.628 5.69214 28.4727 5.26881C28.3173 4.84401 28.0773 4.47734 27.7523 4.166C27.4268 3.85534 26.982 3.60201 26.4169 3.40321L33.2836 0.352019V15.6104C33.8773 15.1308 34.5407 14.6428 35.2757 14.1473C36.0109 13.6541 36.7796 13.2092 37.5855 12.8131C38.3905 12.4175 39.2103 12.0928 40.0436 11.8384C40.8771 11.584 41.69 11.4847 42.4811 11.5417C43.1024 11.57 43.7033 11.6971 44.282 11.9231C44.8611 12.1499 45.3773 12.4733 45.8293 12.8977C46.2817 13.3215 46.642 13.8371 46.9099 14.4451C47.1783 15.0525 47.3136 15.7653 47.3136 16.5851V28.4952C47.3136 29.5693 47.5101 30.5368 47.9063 31.3985C48.3012 32.2607 49.0647 32.8892 50.1951 33.2841H39.8955C41.0543 32.8892 41.8307 32.2607 42.2267 31.3985C42.6217 30.5368 42.8205 29.5693 42.8205 28.4952V17.1365C42.8205 15.6947 42.5445 14.6776 41.9935 14.0841C41.4428 13.4904 40.7436 13.1945 39.8955 13.1945C38.9344 13.1945 37.8613 13.4776 36.6743 14.0419C35.4879 14.6076 34.3577 15.2858 33.2836 16.076V28.4952C33.2836 29.5693 33.4884 30.5368 33.8981 31.3985C34.3071 32.2607 35.0781 32.8892 36.2081 33.2841H25.9089Z" fill="#367E34"/>
<path d="M50.1104 15.059L57.0191 12.0074V28.1984C57.0191 29.64 57.2949 30.6571 57.8452 31.2496C58.3967 31.8435 59.0959 32.1402 59.944 32.1402C60.904 32.1402 61.9709 31.8582 63.1441 31.2931C64.3157 30.7282 65.4395 30.0496 66.5136 29.2579V19.8911C66.5136 19.326 66.4924 18.7958 66.4501 18.3014C66.4081 17.8071 66.308 17.3479 66.1533 16.9242C65.998 16.5004 65.7573 16.1331 65.4331 15.8216C65.108 15.511 64.662 15.2574 64.0981 15.059L71.0059 12.0074V28.4952C71.0059 29.5694 71.1473 30.4946 71.4304 31.272C71.7116 32.0495 72.376 32.7199 73.4215 33.2842H70.1155C68.9295 33.2842 68.0461 32.9811 67.4675 32.3738C66.8877 31.7663 66.5695 30.8687 66.5136 29.6823C65.9201 30.1343 65.2557 30.6151 64.5213 31.1231C63.7867 31.6311 63.0164 32.0914 62.2117 32.5003C61.4067 32.91 60.5933 33.2419 59.7747 33.4966C58.9541 33.751 58.1348 33.8492 57.3161 33.7934C56.694 33.7646 56.1003 33.638 55.5363 33.4119C54.9701 33.1859 54.4611 32.8606 54.0101 32.4368C53.5577 32.0135 53.1976 31.4904 52.9296 30.8687C52.6601 30.2474 52.5259 29.527 52.5259 28.7076V19.8911C52.5259 19.326 52.5048 18.7958 52.4628 18.3014C52.4205 17.8071 52.3211 17.3479 52.1668 16.9242C52.0104 16.5004 51.77 16.1331 51.4453 15.8216C51.1203 15.511 50.6755 15.2574 50.1104 15.059Z" fill="#367E34"/>
<path d="M77.2788 28.4952V19.8911C77.2788 19.326 77.2576 18.7957 77.2153 18.3013C77.1729 17.8071 77.0728 17.3479 76.9187 16.9241C76.7633 16.5004 76.5225 16.1331 76.1975 15.8216C75.8728 15.5109 75.4284 15.2574 74.8633 15.059L81.7296 12.0074V15.2291C82.3223 14.7777 82.9719 14.3249 83.6787 13.8725C84.3843 13.4205 85.1131 13.018 85.8617 12.6645C86.6104 12.3116 87.3732 12.0285 88.1507 11.8165C88.9269 11.6048 89.6968 11.5141 90.4607 11.5417C90.9973 11.57 91.52 11.6683 92.028 11.8384C92.5372 12.0073 93.0032 12.2556 93.4276 12.5799C93.8513 12.905 94.2115 13.3075 94.5081 13.7883C94.8048 14.2687 95.0089 14.82 95.1227 15.4411C95.7165 14.9891 96.3733 14.5233 97.0937 14.0419C97.8141 13.5623 98.5704 13.1314 99.3615 12.749C100.152 12.3675 100.951 12.0572 101.756 11.8165C102.562 11.5776 103.359 11.4847 104.151 11.5417C104.771 11.57 105.372 11.6971 105.952 11.9231C106.531 12.1499 107.039 12.4733 107.478 12.8977C107.916 13.3215 108.269 13.8371 108.538 14.4451C108.806 15.0525 108.94 15.7653 108.94 16.5851V28.4952C108.94 29.5693 109.138 30.5368 109.533 31.3985C109.928 32.2607 110.705 32.8892 111.865 33.2841H101.566C102.695 32.8892 103.458 32.2607 103.854 31.3985C104.249 30.5368 104.447 29.5693 104.447 28.4952V17.1365C104.447 15.6947 104.172 14.6776 103.62 14.0841C103.07 13.4904 102.371 13.1946 101.523 13.1946C100.59 13.1946 99.5663 13.4564 98.4499 13.9784C97.3333 14.5021 96.252 15.1308 95.2073 15.8647C95.2349 16.0061 95.2497 16.1267 95.2497 16.2249C95.2497 16.3243 95.2497 16.4437 95.2497 16.5851V28.4952C95.2497 29.5693 95.4469 30.5368 95.8431 31.3985C96.2392 32.2607 97.0019 32.8892 98.132 33.2841H87.8751C89.0052 32.8892 89.7679 32.2607 90.1636 31.3985C90.5589 30.5368 90.7573 29.5693 90.7573 28.4952V17.1365C90.7573 15.6947 90.4819 14.6776 89.9304 14.0841C89.3789 13.4904 88.6797 13.1946 87.8328 13.1946C86.9276 13.1946 85.9388 13.4352 84.8659 13.9148C83.7917 14.3956 82.7459 14.9891 81.7296 15.6947V28.4952C81.7296 29.5693 81.9337 30.5368 82.3433 31.3985C82.7523 32.2607 83.5233 32.8892 84.6535 33.2841H74.3543C75.4843 32.8892 76.2541 32.2607 76.6643 31.3985C77.0728 30.5368 77.2788 29.5693 77.2788 28.4952Z" fill="#367E34"/>
<path d="M111.992 33.2841C113.121 32.8892 113.892 32.2607 114.302 31.3985C114.711 30.5368 114.916 29.5693 114.916 28.4952V19.8911C114.916 19.326 114.895 18.7957 114.852 18.3013C114.81 17.8071 114.711 17.3479 114.555 16.9241C114.4 16.5004 114.159 16.1331 113.835 15.8216C113.51 15.5109 113.065 15.2573 112.5 15.0589L119.367 12.0074V28.4952C119.367 29.5693 119.571 30.5368 119.981 31.3985C120.39 32.2607 121.16 32.8892 122.29 33.2841H111.992ZM114.45 8.61667C114.45 7.882 114.711 7.25415 115.234 6.73042C115.756 6.20762 116.385 5.94681 117.12 5.94681C117.854 5.94681 118.49 6.20762 119.027 6.73042C119.564 7.25415 119.833 7.882 119.833 8.61667C119.833 9.35187 119.564 9.9804 119.027 10.5035C118.49 11.0261 117.854 11.2869 117.12 11.2869C116.385 11.2869 115.756 11.0261 115.234 10.5035C114.711 9.9804 114.45 9.35187 114.45 8.61667Z" fill="#367E34"/>
<path d="M136.574 3.61561H148.06C147.438 3.72868 146.959 3.93348 146.619 4.22948C146.281 4.52735 146.053 4.88749 145.94 5.31082C145.829 5.73442 145.807 6.20762 145.877 6.73042C145.948 7.25415 146.082 7.81201 146.281 8.40467L152.596 28.4952C152.793 29.0889 153.048 29.6971 153.358 30.3172L160.267 8.40467C160.465 7.81201 160.599 7.25415 160.67 6.73042C160.74 6.20762 160.719 5.73442 160.606 5.31082C160.492 4.88749 160.267 4.52735 159.928 4.22948C159.589 3.93348 159.108 3.72868 158.487 3.61561H165.607C164.194 3.84241 163.135 4.39947 162.429 5.2896C161.723 6.18 161.171 7.21827 160.776 8.40467L154.46 28.4952C154.291 29.0613 154.163 29.5829 154.079 30.0625C153.994 30.544 153.994 30.9953 154.079 31.4197C154.475 31.9005 154.941 32.2955 155.478 32.6061C156.014 32.9176 156.664 33.1436 157.427 33.2841H149.246L141.406 8.40467C141.01 7.21827 140.46 6.18 139.753 5.2896C139.047 4.39947 137.987 3.84241 136.574 3.61561Z" fill="#367E34"/>
<path d="M164.676 13.3215C165.41 12.7564 166.25 12.3188 167.197 12.0074C168.144 11.6971 169.197 11.5417 170.355 11.5417C171.881 11.5417 173.215 11.81 174.36 12.3464C175.505 12.8841 176.465 13.6046 177.243 14.5087C178.019 15.4127 178.599 16.4585 178.98 17.6445C179.362 18.8316 179.553 20.06 179.553 21.333H163.404C163.715 22.4914 164.188 23.6355 164.824 24.7655C165.459 25.8956 166.223 26.9055 167.113 27.7959C168.003 28.6864 169.005 29.4068 170.122 29.9571C171.238 30.5086 172.432 30.7988 173.704 30.8264C174.748 30.8547 175.738 30.6635 176.67 30.2537C177.603 29.8448 178.366 29.2439 178.959 28.4528C178.196 29.9783 177.101 31.2496 175.674 32.2679C174.247 33.2842 172.474 33.7934 170.355 33.7934C168.546 33.7934 166.985 33.4044 165.672 32.6274C164.358 31.8507 163.291 30.8547 162.471 29.64C161.652 28.4246 161.087 27.0544 160.776 25.5283C160.465 24.0028 160.401 22.4841 160.585 20.9716C160.769 19.4601 161.201 18.0267 161.879 16.6698C162.556 15.3134 163.489 14.198 164.676 13.3215ZM163.319 20.9928H174.127C174.155 19.7792 174.006 18.6552 173.682 17.6233C173.357 16.5923 172.912 15.7021 172.347 14.9531C171.782 14.2044 171.125 13.6182 170.376 13.1946C169.627 12.77 168.843 12.5588 168.024 12.5588C167.43 12.5588 166.829 12.6789 166.223 12.9189C165.615 13.1585 165.029 13.5335 164.464 14.0419C163.672 14.7778 163.198 15.7653 163.044 17.0088C162.889 18.2527 162.98 19.5804 163.319 20.9928Z" fill="#367E34"/>
<path d="M181.502 22.646C181.502 21.2619 181.706 19.9057 182.116 18.5773C182.525 17.2496 183.147 16.0624 183.982 15.0166C184.814 13.9719 185.846 13.1313 187.075 12.4945C188.305 11.8596 189.738 11.5417 191.377 11.5417C193.073 11.5417 194.513 11.8807 195.701 12.5588C196.887 13.2368 197.847 14.1261 198.582 15.2291V8.19348C198.582 7.65668 198.561 7.14042 198.519 6.64616C198.476 6.15176 198.377 5.69215 198.223 5.26882C198.066 4.84402 197.826 4.47735 197.502 4.16601C197.176 3.85535 196.731 3.60202 196.167 3.40322L203.075 0.352027V28.4952C203.075 29.5693 203.216 30.4946 203.499 31.272C203.781 32.0495 204.446 32.7199 205.491 33.2842H202.185C201.055 33.2842 200.208 33.0095 199.642 32.458C199.077 31.9069 198.737 31.1095 198.624 30.0625C197.89 31.1653 196.929 32.0631 195.743 32.7551C194.556 33.4467 193.1 33.7934 191.377 33.7934C189.738 33.7934 188.305 33.4755 187.075 32.8394C185.846 32.2036 184.814 31.3631 183.982 30.3172C183.147 29.2725 182.525 28.0779 182.116 26.7353C181.706 25.394 181.502 24.0304 181.502 22.646ZM193.243 32.7339C194.231 32.7339 195.065 32.5363 195.743 32.1402C196.421 31.7452 196.971 31.215 197.396 30.5504C197.819 29.8872 198.123 29.1308 198.307 28.2828C198.491 27.4358 198.582 26.574 198.582 25.6983V18.6196C198.582 17.8569 198.476 17.1154 198.265 16.395C198.053 15.6735 197.735 15.0378 197.311 14.4875C196.887 13.936 196.364 13.484 195.743 13.1313C195.121 12.7776 194.387 12.5871 193.539 12.5588C192.634 12.5028 191.738 12.6929 190.847 13.1313C189.958 13.5695 189.158 14.2191 188.453 15.0802C187.746 15.943 187.166 17.0088 186.715 18.2803C186.263 19.552 186.036 21.0075 186.036 22.646C186.036 24.2564 186.248 25.6908 186.673 26.9479C187.096 28.2056 187.647 29.2579 188.326 30.106C189.004 30.9529 189.773 31.6035 190.636 32.0559C191.497 32.5079 192.366 32.7339 193.243 32.7339Z" fill="#367E34"/>
<path d="M215.833 17.4744C217.104 17.4744 218.291 17.6592 219.393 18.0267C220.495 18.3944 221.526 18.9311 222.487 19.6367V17.1365C222.43 15.6947 222.169 14.6352 221.703 13.9572C221.237 13.2792 220.65 12.8271 219.944 12.6011C219.463 12.4606 218.941 12.4522 218.376 12.5799C217.811 12.7066 217.246 12.9401 216.681 13.2792C216.114 13.6181 215.571 14.0491 215.049 14.5717C214.525 15.0948 214.053 15.6811 213.629 16.3308L209.856 13.8725C210.591 13.0827 211.524 12.4881 212.654 12.0928C213.783 11.6971 214.985 11.4993 216.257 11.4993C217.528 11.4993 218.799 11.6895 220.071 12.0708C221.343 12.4521 222.494 13.0256 223.526 13.7883C224.557 14.5509 225.39 15.4897 226.026 16.6063C226.662 17.7228 226.98 19.0005 226.98 20.4425V28.4952C226.98 29.5693 227.121 30.4945 227.403 31.272C227.686 32.0495 228.35 32.7199 229.397 33.2841L226.091 33.2419C225.072 33.2419 224.281 33.0896 223.716 32.7853C223.151 32.4811 222.784 31.9123 222.615 31.0807L222.487 31.1231C222.063 31.6311 221.583 32.0559 221.046 32.3948C220.509 32.7339 219.944 33.0029 219.351 33.1995C218.757 33.3972 218.142 33.5321 217.506 33.602C216.871 33.6727 216.257 33.7087 215.663 33.7087C213.685 33.6803 212.032 33.2565 210.704 32.4368C209.376 31.6175 208.387 30.6075 207.737 29.4068C207.087 28.2056 206.762 26.9055 206.762 25.5071C206.762 24.1087 207.101 22.8156 207.779 21.6286C208.458 20.4426 209.467 19.4537 210.81 18.6616C212.152 17.8716 213.826 17.4744 215.833 17.4744ZM217.359 33.1572C218.941 33.13 220.19 32.5849 221.11 31.5256C222.027 30.4661 222.487 29.0043 222.487 27.1391V23.4941C222.487 22.646 222.331 21.8832 222.021 21.2052C221.709 20.5268 221.307 19.9545 220.812 19.4885C220.318 19.0217 219.759 18.6616 219.138 18.4072C218.516 18.1536 217.881 18.0267 217.231 18.0267C215.846 17.9983 214.688 18.3584 213.756 19.1064C212.823 19.8563 212.13 20.7887 211.679 21.9044C211.227 23.0205 211.008 24.2352 211.022 25.5493C211.036 26.8632 211.276 28.0861 211.743 29.2155C212.208 30.3456 212.914 31.2856 213.861 32.0347C214.809 32.7833 215.974 33.1572 217.359 33.1572Z" fill="#367E34"/>
</svg>
